<svg width="490" height="740" viewBox="0 0 490 740" fill="none" xmlns="http://www.w3.org/2000/svg">
<rect x="490" y="3.05176e-05" width="740" height="490" rx="8" transform="rotate(90 490 3.05176e-05)" fill="#679331"/>
<g clip-path="url(#clip0_734_10745)">
<rect x="480" y="10" width="72" height="470" transform="rotate(90 480 10)" fill="#598424"/>
<rect x="480" y="154" width="72" height="470" transform="rotate(90 480 154)" fill="#598424"/>
<rect x="480" y="298" width="72" height="470" transform="rotate(90 480 298)" fill="#598424"/>
<rect x="480" y="442" width="72" height="470" transform="rotate(90 480 442)" fill="#598424"/>
<rect x="480" y="586" width="72" height="470" transform="rotate(90 480 586)" fill="#598424"/>
</g>
<rect x="479" y="11" width="718" height="468" rx="3" transform="rotate(90 479 11)" stroke="white" stroke-opacity="0.45" stroke-width="2"/>
<path d="M325.694 728L325.694 682.946C325.694 680.737 323.903 678.946 321.694 678.946L168.305 678.946C166.096 678.946 164.305 680.737 164.305 682.946L164.305 728" stroke="white" stroke-opacity="0.45" stroke-width="2"/>
<path d="M285.528 728L285.528 709.926C285.528 707.717 283.737 705.926 281.528 705.926L208.472 705.926C206.263 705.926 204.472 707.717 204.472 709.926L204.472 728" stroke="white" stroke-opacity="0.45" stroke-width="2"/>
<path d="M285.185 678.488C277.792 666.926 262.647 659 245.164 659C227.681 659 212.535 666.926 205.143 678.488" stroke="white" stroke-opacity="0.45" stroke-width="2"/>
<path d="M326.259 12L326.259 57.4014C326.259 59.6106 324.468 61.4014 322.259 61.4014L167.741 61.4014C165.532 61.4014 163.741 59.6106 163.741 57.4014L163.741 12" stroke="white" stroke-opacity="0.45" stroke-width="2"/>
<path d="M285.812 12L285.812 30.2238C285.812 32.4329 284.021 34.2238 281.812 34.2238L208.189 34.2238C205.98 34.2238 204.189 32.4329 204.189 30.2238L204.189 12" stroke="white" stroke-opacity="0.45" stroke-width="2"/>
<path d="M285.5 62C278.056 73.6403 262.805 81.6196 245.199 81.6196C227.594 81.6196 212.343 73.6403 204.899 62" stroke="white" stroke-opacity="0.45" stroke-width="2"/>
<path d="M478 371L12.0001 371" stroke="white" stroke-opacity="0.45" stroke-width="2"/>
<circle cx="245" cy="370" r="59" transform="rotate(90 245 370)" stroke="white" stroke-opacity="0.45" stroke-width="2"/>
<path d="M12 30C22.2252 30 30 21.9411 30 12" stroke="white" stroke-opacity="0.45" stroke-width="2"/>
<path d="M478 30C468.328 30 460 21.9411 460 12" stroke="white" stroke-opacity="0.45" stroke-width="2"/>
<path d="M12 710C21.9411 710 30 718.059 30 728" stroke="white" stroke-opacity="0.45" stroke-width="2"/>
<path fill-rule="evenodd" clip-rule="evenodd" d="M478 711.895C469.105 711.895 461.895 719.105 461.895 728L460 728C460 718.059 468.059 710 478 710L478 711.895Z" fill="white" fill-opacity="0.45"/>
<defs>
<clipPath id="clip0_734_10745">
<rect x="480" y="10" width="720" height="470" rx="4" transform="rotate(90 480 10)" fill="white"/>
</clipPath>
</defs>
</svg>
