<svg width="140" height="30" viewBox="0 0 140 30" fill="none" xmlns="http://www.w3.org/2000/svg">
<path d="M35.2215 11.6596V22.1641H32.3V7.83592H36.2096L41.9022 18.5122V7.83592H44.8022V22.1641H41.0644L35.2215 11.6596Z" fill="white"/>
<path d="M53.3685 7.75C54.8006 7.75 56.0608 7.99346 57.1492 8.48037C58.4238 9.06753 59.3188 10.0485 59.8344 11.4233C60.2354 12.4974 60.4359 13.7577 60.4359 15.2041C60.4359 16.6648 60.1924 17.9322 59.7055 19.0063C59.0897 20.2809 58.1445 21.1759 56.8699 21.6915C55.9248 22.0638 54.8364 22.25 53.6048 22.25C51.9865 22.25 50.583 21.9493 49.3944 21.3478C48.3919 20.8465 47.6257 20.0589 47.0959 18.9848C46.566 17.9107 46.301 16.6075 46.301 15.0752C46.301 12.3399 46.9813 10.3922 48.3418 9.23222C49.4875 8.25839 51.163 7.76432 53.3685 7.75ZM53.3899 10.1559C51.9865 10.1559 50.984 10.6142 50.3825 11.5307C49.8956 12.2468 49.6522 13.3996 49.6522 14.9893C49.6522 16.6648 49.9529 17.8964 50.5544 18.6841C51.1559 19.4574 52.1082 19.8441 53.4114 19.8441C54.6717 19.8441 55.5954 19.4502 56.1825 18.6626C56.784 17.8749 57.0848 16.6577 57.0848 15.0107C57.0848 13.507 56.8413 12.3614 56.3544 11.5737C55.7959 10.6428 54.8077 10.1702 53.3899 10.1559Z" fill="white"/>
<path d="M63.909 7.83592L67.1312 18.6196L70.1386 7.83592H73.5327L76.5401 18.6196L79.7623 7.83592H82.8986L78.2801 22.1641H74.8001L71.8357 11.8315L68.8712 22.1641H65.3912L60.7512 7.83592H63.909Z" fill="white"/>
<path d="M89.2494 13.6574H96.2739V22.1641H89.8724C88.7697 22.1641 87.8889 22.0853 87.2302 21.9278C86.5857 21.7559 85.9986 21.4623 85.4687 21.047C83.965 19.887 83.2131 17.8893 83.2131 15.0537C83.2131 13.2063 83.5711 11.6668 84.2872 10.4352C84.8171 9.53296 85.5403 8.8742 86.4568 8.45889C87.3734 8.04358 88.562 7.83592 90.0228 7.83592H96.2739V10.3922H90.3665C89.0919 10.3922 88.1682 10.6715 87.5953 11.23C86.9079 11.8888 86.5642 13.0702 86.5642 14.7744C86.5642 15.648 86.6502 16.4357 86.822 17.1374C87.0082 17.8391 87.2588 18.3619 87.5739 18.7056C87.846 19.0206 88.2183 19.2498 88.6909 19.393C89.1778 19.5362 89.7721 19.6078 90.4739 19.6078H93.245V16.2137H89.2494V13.6574Z" fill="white"/>
<path d="M104.489 7.75C105.921 7.75 107.181 7.99346 108.269 8.48037C109.544 9.06753 110.439 10.0485 110.954 11.4233C111.355 12.4974 111.556 13.7577 111.556 15.2041C111.556 16.6648 111.312 17.9322 110.826 19.0063C110.21 20.2809 109.265 21.1759 107.99 21.6915C107.045 22.0638 105.956 22.25 104.725 22.25C103.107 22.25 101.703 21.9493 100.514 21.3478C99.512 20.8465 98.7458 20.0589 98.2159 18.9848C97.686 17.9107 97.4211 16.6075 97.4211 15.0752C97.4211 12.3399 98.1013 10.3922 99.4618 9.23222C100.608 8.25839 102.283 7.76432 104.489 7.75ZM104.51 10.1559C103.107 10.1559 102.104 10.6142 101.503 11.5307C101.016 12.2468 100.772 13.3996 100.772 14.9893C100.772 16.6648 101.073 17.8964 101.674 18.6841C102.276 19.4574 103.228 19.8441 104.531 19.8441C105.792 19.8441 106.715 19.4502 107.303 18.6626C107.904 17.8749 108.205 16.6577 108.205 15.0107C108.205 13.507 107.961 12.3614 107.474 11.5737C106.916 10.6428 105.928 10.1702 104.51 10.1559Z" fill="white"/>
<path d="M111.656 22.1641L117.585 7.83592H121.087L127.016 22.1641H123.45L122.053 18.8559H116.619L115.222 22.1641H111.656ZM119.347 11.2944L117.306 16.2996H121.388L119.347 11.2944Z" fill="white"/>
<path d="M127.739 7.83592H130.768V15.8915C130.811 16.9083 130.854 17.5814 130.897 17.9107C130.997 18.5695 131.312 19.0206 131.842 19.2641C132.372 19.4932 133.303 19.6078 134.635 19.6078H137.556V22.1641H134.313C132.78 22.1641 131.67 22.0781 130.983 21.9063C129.408 21.448 128.405 20.4456 127.975 18.8989C127.818 18.2974 127.739 17.2949 127.739 15.8915V7.83592Z" fill="white"/>
<circle cx="14.4438" cy="15" r="12" fill="white"/>
<path fill-rule="evenodd" clip-rule="evenodd" d="M14.5248 24.5C9.27806 24.5 5.04022 20.2467 5.04022 15C5.04022 9.75329 9.29352 5.5 14.5402 5.5C17.163 5.5 19.3759 6.11182 21.4889 8.19687C22.4092 9.10494 23.408 9.89451 23.408 9.89451L22.4092 10.3957C22.4092 10.3957 24.5649 11.9858 24.5648 15C24.5648 17.3877 23.6046 18.687 23.0194 19.3264C23.21 18.0913 22.5418 16.4927 20.833 15.6076C18.9415 14.6279 16.6497 15.6077 16.6497 15.6077C15.4947 19.2755 18.166 21.0664 22.1464 20.6421C20.979 22.0932 19.3075 23.1152 17.4753 23.5797L18.2802 24.24C18.2802 24.24 16.7868 24.5 14.5248 24.5Z" fill="white"/>
<path fill-rule="evenodd" clip-rule="evenodd" d="M16.1752 24.4533C15.6907 24.481 15.1357 24.5 14.5248 24.5C9.27806 24.5 5.04022 20.2467 5.04022 15C5.04022 9.75329 9.29352 5.5 14.5402 5.5C17.163 5.5 19.3759 6.11182 21.4889 8.19687C21.7162 8.42117 21.9483 8.63824 22.169 8.83797C22.4931 9.1313 22.7925 9.38723 23.0158 9.5737C23.2559 9.77428 23.408 9.89451 23.408 9.89451L22.4092 10.3957C22.4092 10.3957 22.552 10.5011 22.7642 10.709C22.9595 10.9004 23.2137 11.1789 23.4692 11.5421C24.014 12.3165 24.5648 13.4763 24.5648 15C24.5648 15.8859 24.4326 16.6219 24.2365 17.23C23.9792 18.0276 23.6119 18.6051 23.2883 19.0119C23.1936 19.1309 23.1027 19.2354 23.0194 19.3264C23.0339 19.2321 23.0435 19.1356 23.0479 19.0375C23.0735 18.4757 22.932 17.8601 22.6084 17.2808C22.2486 16.6369 21.6638 16.0379 20.833 15.6076C18.9415 14.6279 16.6497 15.6077 16.6497 15.6077C15.7133 18.5813 17.2918 20.3211 20.0439 20.6472C20.4365 20.6937 20.8531 20.7115 21.2896 20.6999C21.5674 20.6926 21.8534 20.6733 22.1464 20.6421C21.8422 21.0202 21.5039 21.3691 21.1374 21.6866C20.9325 21.8642 20.7188 22.0319 20.4973 22.1894C20.0658 22.4963 19.605 22.7644 19.1226 22.9909C18.8011 23.1418 18.47 23.2741 18.1317 23.3871C17.9157 23.4593 17.6966 23.5236 17.4753 23.5797L18.2802 24.24C18.2802 24.24 18.0613 24.2781 17.6643 24.3251C17.4322 24.3526 17.1392 24.3832 16.7934 24.4109C16.6029 24.4262 16.3964 24.4407 16.1752 24.4533ZM14.4024 22.9991C10.0439 22.9337 6.54022 19.3805 6.54022 15C6.54022 10.5817 10.1219 7 14.5402 7C16.866 7 18.6654 7.51809 20.4354 9.26458C20.5358 9.36368 20.6368 9.46121 20.7372 9.55642L19.5512 10.1515L21.5093 11.5958C21.5139 11.5995 21.524 11.6075 21.5387 11.6199C21.5721 11.6478 21.6288 11.6972 21.7012 11.7676C21.8472 11.9092 22.0507 12.1297 22.2559 12.4244C22.6641 13.011 23.0648 13.8687 23.0648 15C23.0648 15.1381 23.0609 15.2713 23.0536 15.3996C22.6299 14.9672 22.1186 14.5842 21.5229 14.2757C20.1814 13.5808 18.7724 13.6111 17.8076 13.7571C17.311 13.8323 16.8893 13.9444 16.589 14.0384C16.4379 14.0858 16.3148 14.1294 16.2253 14.1629C16.1805 14.1797 16.1439 14.1941 16.1162 14.2053L16.0813 14.2195L16.0689 14.2247L16.0641 14.2267L16.061 14.228C16.0605 14.2282 16.0601 14.2284 16.6497 15.6077L16.061 14.228L15.4261 14.4995L15.219 15.1571C14.5094 17.4105 14.9066 19.4702 16.5105 20.8105C17.0055 21.2241 17.5782 21.5358 18.2038 21.7583C17.8504 21.907 17.4834 22.0302 17.1067 22.1257L14.2275 22.8556L14.4024 22.9991Z" fill="#106410"/>
<path d="M9.52421 8.13097C9.37234 9.02044 9.45929 10.4479 9.45929 10.4479C9.45929 10.4479 8.37436 11.1782 7.73491 11.8057C7.08682 12.4417 6.16301 13.6835 6.16301 13.6835L5.78216 13.1267C6.29945 10.8553 7.69848 8.91922 9.60017 7.69766C9.57307 7.84905 9.54731 7.99565 9.52421 8.13097Z" fill="#106410"/>
<path d="M6.24355 18.475L6.48416 17.7364C6.48416 17.7364 7.69965 18.2871 8.31499 18.5026C8.93034 18.7181 10.2063 19.0678 10.2063 19.0678C10.2063 19.0678 10.4098 20.279 10.6562 20.9745C10.9027 21.67 11.735 23.0271 11.735 23.0271L10.8091 23.116C8.75515 22.2135 7.1132 20.5464 6.24355 18.475Z" fill="#106410"/>
<path d="M16.3526 8.88431C16.3526 8.88431 17.6482 9.08146 19.4509 10.1437C19.4509 10.1437 17.1412 10.3208 16.7751 10.1437C16.4089 9.96652 16.3526 8.88431 16.3526 8.88431Z" fill="#FF4146"/>
<path d="M11.3831 17.6367C11.3831 17.6367 11.4787 19.9075 7.29667 20.6475C7.62225 20.2818 7.57183 19.8242 7.95258 19.7169C10.9577 19.2459 11.3831 17.6367 11.3831 17.6367Z" fill="#106410"/>
<path d="M10.7159 12.4724C10.7159 12.4724 8.482 12.0537 8.70355 7.81253C8.98642 8.21214 9.44363 8.26616 9.46235 8.6613C9.24392 11.6952 10.7159 12.4724 10.7159 12.4724Z" fill="#106410"/>
<path d="M14.5982 14.2209C14.5982 14.2209 17.6575 13.3407 20.2515 13.9973C14.644 14.454 16.0587 18.528 16.0788 19.628C16.0788 19.628 15.1512 19.0678 15.0457 17.5033C14.9593 16.2228 14.8828 14.9752 14.5982 14.2209Z" fill="#106410"/>
<path d="M7.28554 6.01099C7.28554 6.01099 9.02211 6.74326 11.4283 6.01099L8.72818 7.98571C8.72818 7.98571 7.67125 7.78538 7.28554 6.01099Z" fill="#106410"/>
<path d="M3.13461 17.0224C3.13461 17.0224 4.65027 15.9023 5.24779 13.4592L5.56899 16.7889C5.56899 16.7889 4.85755 17.5958 3.13461 17.0224Z" fill="#106410"/>
</svg>
