<svg width="26" height="20" viewBox="0 0 26 20" fill="none" xmlns="http://www.w3.org/2000/svg">
<path d="M5.49393 16.5252V3.17773C5.49393 3.03273 5.51893 2.89023 5.53893 2.75023L1.67893 3.99648C0.783926 4.28398 0.292676 5.24648 0.583926 6.13398L4.74643 18.829C4.89036 19.2582 5.19781 19.6133 5.602 19.8171C6.00619 20.021 6.47448 20.0571 6.90518 19.9177L8.00018 19.5602C6.58268 19.2802 5.49393 18.0102 5.49393 16.5252ZM8.15393 14.2452L12.2289 1.21273C12.2702 1.08023 12.3189 0.921484 12.3752 0.833984H8.45393C7.53268 0.833984 6.75018 1.62523 6.75018 2.58398V16.2902C6.75018 17.249 7.53268 18.084 8.45393 18.084H9.79268C9.10756 17.744 8.56616 17.1708 8.26579 16.4674C7.96541 15.764 7.92575 14.9765 8.15393 14.2465V14.2452ZM24.3252 3.78648L15.6027 0.917734C15.4345 0.862253 15.2585 0.833981 15.0814 0.833984C14.3652 0.833984 13.6939 1.29648 13.4627 2.02148L9.33268 14.8827C9.04518 15.7815 9.53518 16.7565 10.4239 17.049L19.1477 19.9165C19.3202 19.974 19.4964 20.0002 19.6689 20.0002C20.3852 20.0002 21.0564 19.5377 21.2877 18.8127L25.4177 5.95273C25.7052 5.05273 25.2152 4.07773 24.3264 3.78648H24.3252ZM15.8802 13.6115C11.8202 8.48648 14.1852 5.93773 15.6827 5.94523C16.9452 5.95148 17.4577 6.89148 17.6777 7.85898C18.3527 7.08898 19.3489 6.76273 20.3727 7.52773C21.5889 8.43648 22.0639 11.9427 15.8802 13.6115Z" fill="white"/>
</svg>
