<svg xmlns="http://www.w3.org/2000/svg" width="41" height="41" viewBox="0 0 41 41" fill="none">
<path d="M30.2692 30.9H11.0692C9.70919 30.9 8.66919 29.86 8.66919 28.5V10.9C8.66919 9.54 9.54919 8.5 10.6692 8.5H11.8692V10.1H10.6692C10.5092 10.1 10.2692 10.42 10.2692 10.9V28.5C10.2692 28.98 10.5892 29.3 11.0692 29.3H30.2692C30.7492 29.3 31.0692 28.98 31.0692 28.5V10.9C31.0692 10.42 30.8292 10.1 30.6692 10.1H29.4692V8.5H30.6692C31.7892 8.5 32.6692 9.54 32.6692 10.9V28.5C32.6692 29.86 31.6292 30.9 30.2692 30.9Z" fill="#F8F8F8"/>
<path d="M14.2693 11.7C13.7893 11.7 13.4693 11.38 13.4693 10.9V7.70002C13.4693 7.22002 13.7893 6.90002 14.2693 6.90002C14.7493 6.90002 15.0693 7.22002 15.0693 7.70002V10.9C15.0693 11.38 14.7493 11.7 14.2693 11.7ZM27.0693 11.7C26.5893 11.7 26.2693 11.38 26.2693 10.9V7.70002C26.2693 7.22002 26.5893 6.90002 27.0693 6.90002C27.5493 6.90002 27.8693 7.22002 27.8693 7.70002V10.9C27.8693 11.38 27.5493 11.7 27.0693 11.7ZM16.6693 8.50002H24.6693V10.1H16.6693V8.50002ZM10.2693 13.3H31.0693V14.9H10.2693V13.3ZM27.8693 16.5H29.4693V18.1H27.8693V16.5ZM24.6693 16.5H27.8693V18.1H24.6693V16.5ZM21.4693 16.5H23.0693V18.1H21.4693V16.5ZM18.2693 16.5H19.8693V18.1H18.2693V16.5ZM15.0693 16.5H16.6693V18.1H15.0693V16.5ZM27.8693 19.7H29.4693V21.3H27.8693V19.7ZM24.6693 19.7H26.2693V21.3H24.6693V19.7ZM21.4693 19.7H23.0693V21.3H21.4693V19.7ZM18.2693 19.7H21.4693V21.3H18.2693V19.7ZM15.0693 19.7H16.6693V21.3H15.0693V19.7ZM11.8693 19.7H13.4693V21.3H11.8693V19.7ZM27.8693 22.9H29.4693V24.5H27.8693V22.9ZM24.6693 22.9H26.2693V24.5H24.6693V22.9ZM21.4693 22.9H23.0693V24.5H21.4693V22.9ZM18.2693 22.9H19.8693V24.5H18.2693V22.9ZM15.0693 22.9H18.2693V24.5H15.0693V22.9ZM11.8693 22.9H13.4693V24.5H11.8693V22.9ZM24.6693 26.1H26.2693V27.7H24.6693V26.1ZM21.4693 26.1H24.6693V27.7H21.4693V26.1ZM18.2693 26.1H19.8693V27.7H18.2693V26.1ZM15.0693 26.1H16.6693V27.7H15.0693V26.1ZM11.8693 26.1H13.4693V27.7H11.8693V26.1Z" fill="#F8F8F8"/>
</svg>