<svg width="21" height="21" viewBox="0 0 21 21" fill="none" xmlns="http://www.w3.org/2000/svg">
<path d="M20.5 10.5C20.5 16.0273 16.0273 20.5 10.5 20.5C4.97273 20.5 0.5 16.0273 0.5 10.5C0.5 4.97273 4.97273 0.5 10.5 0.5C16.0273 0.5 20.5 4.97273 20.5 10.5ZM11.4091 3.28182C13.3455 3.52727 15.1091 4.54545 16.2909 6.1L17.8727 5.19091C17.1257 4.13766 16.1629 3.25562 15.0484 2.60353C13.9339 1.95144 12.6933 1.54426 11.4091 1.40909V3.28182ZM3.12727 5.19091L4.70909 6.1C5.29512 5.32984 6.02857 4.68401 6.86671 4.20017C7.70485 3.71633 8.6309 3.40415 9.59091 3.28182V1.40909C8.30674 1.54426 7.0661 1.95144 5.95159 2.60353C4.83708 3.25562 3.87428 4.13766 3.12727 5.19091ZM2.21818 14.2273L3.79091 13.3182C3.41736 12.4256 3.22499 11.4676 3.22499 10.5C3.22499 9.53238 3.41736 8.57442 3.79091 7.68182L2.21818 6.77273C1.68356 7.94259 1.40685 9.21377 1.40685 10.5C1.40685 11.7862 1.68356 13.0574 2.21818 14.2273ZM9.59091 17.7182C8.6309 17.5959 7.70485 17.2837 6.86671 16.7998C6.02857 16.316 5.29512 15.6702 4.70909 14.9L3.12727 15.8091C3.87428 16.8623 4.83708 17.7444 5.95159 18.3965C7.0661 19.0486 8.30674 19.4557 9.59091 19.5909V17.7182ZM17.8727 15.8091L16.2909 14.9C15.7049 15.6702 14.9714 16.316 14.1333 16.7998C13.2952 17.2837 12.3691 17.5959 11.4091 17.7182V19.5364C14 19.2727 16.3545 17.9182 17.8727 15.8091ZM18.7818 14.2273C19.8636 11.8636 19.8636 9.13636 18.7818 6.77273L17.2091 7.68182C17.5826 8.57442 17.775 9.53238 17.775 10.5C17.775 11.4676 17.5826 12.4256 17.2091 13.3182L18.7818 14.2273ZM13.2273 10.5L10.5 5.95455L7.77273 10.5L10.5 15.0455L13.2273 10.5Z" fill="#F8F8F8"/>
</svg>
