<svg
    xmlns="http://www.w3.org/2000/svg"
    width="20"
    height="20"
    viewBox="0 0 25 25"
    fill="none"
  >
    <path
      fill-rule="evenodd"
      clip-rule="evenodd"
      d="M18.8887 20.975C19.5 20.975 20 21.505 20 22.1537C20 22.8037 19.5 23.3337 18.8887 23.3337H6.11247C5.50122 23.3337 5.00122 22.8025 5.00122 22.1537C5.00122 21.505 5.50122 20.975 6.11247 20.975H18.8887ZM8.33372 9.575C8.02747 9.575 7.77747 9.31 7.77747 8.98625C7.77747 8.66125 8.02747 8.39625 8.33372 8.39625H16.6662C16.9725 8.39625 17.2225 8.66125 17.2225 8.98625C17.2225 9.31125 16.9725 9.575 16.6662 9.575H15.8337C15.8337 16.3438 16.8337 17.4837 17.4 18.6162H18.055C18.3612 18.6162 18.6112 18.8813 18.6112 19.2062C18.6112 19.5312 18.3612 19.795 18.055 19.795H6.94497C6.63872 19.795 6.38872 19.53 6.38872 19.2062C6.38872 18.8813 6.63872 18.6162 6.94497 18.6162H7.59997C8.16622 17.4837 9.16622 16.3438 9.16622 9.575H8.33372ZM9.16622 2.5V3.99H10.8337V2.5H14.1662V3.99H15.8337V2.5H17.7775V6.225C17.7775 6.77 17.2775 7.2175 16.6662 7.2175H8.33372C7.72122 7.2175 7.22122 6.77 7.22122 6.22375V2.5H9.16622Z"
      fill="white"
    />
  </svg>