<svg width="18" height="18" viewBox="0 0 18 18" fill="none" xmlns="http://www.w3.org/2000/svg">
<path d="M9.27083 17.2234L9.5425 17.7859L9.27167 17.2234H9.27083ZM16.5 10.4717L15.8775 10.525C15.8918 10.6851 15.9673 10.8335 16.0882 10.9394C16.2091 11.0453 16.3661 11.1005 16.5267 11.0937C16.6873 11.0868 16.839 11.0183 16.9504 10.9025C17.0619 10.7867 17.1244 10.6324 17.125 10.4717H16.5ZM2.13667 8.95253L2.725 5.55253L1.4925 5.33919L0.905001 8.73919L2.13667 8.95253ZM7.9625 1.29169H11.8367V0.0416946H7.9625V1.29169ZM12.5958 1.98919L13.2725 9.81669L14.5183 9.70919L13.8408 1.88169L12.5958 1.98919ZM2.725 5.55253C3.1475 3.11086 5.34917 1.29169 7.9625 1.29169V0.0416946C4.77417 0.0416946 2.02417 2.26586 1.4925 5.33919L2.725 5.55253ZM7.95417 14.75L8.50667 11.3792L7.27333 11.1775L6.72083 14.5475L7.95417 14.75ZM13.01 10.4617L11.8108 11.495L12.6275 12.4417L13.825 11.4084L13.01 10.4617ZM9.63 14.8567L9.23333 16.385L10.4433 16.6984L10.84 15.1709L9.63 14.8567ZM8.635 16.685L8.51417 16.6459L8.13167 17.8359L8.2525 17.875L8.635 16.685ZM10.2308 13.32C9.97052 13.8067 9.76884 14.3225 9.63 14.8567L10.84 15.1709C10.9539 14.732 11.1195 14.3082 11.3333 13.9084L10.23 13.32H10.2308ZM8.51417 16.6459C8.39526 16.6098 8.28739 16.5443 8.20056 16.4555C8.11374 16.3666 8.05077 16.2572 8.0175 16.1375L6.8075 16.4509C6.89361 16.7746 7.06015 17.0713 7.29165 17.3135C7.52316 17.5556 7.81211 17.7353 8.13167 17.8359L8.51417 16.6459ZM9.23333 16.385C9.21672 16.4451 9.18725 16.5007 9.14696 16.5482C9.10666 16.5957 9.05652 16.6339 9 16.66L9.5425 17.7859C9.98583 17.5725 10.3192 17.1775 10.4433 16.6984L9.23333 16.385ZM9 16.66C8.88595 16.7145 8.75542 16.7234 8.635 16.685L8.2525 17.875C8.67807 18.0114 9.13974 17.9795 9.5425 17.7859L9.00083 16.66H9ZM7.205 9.84669H2.88833L2.88833 11.0967L7.205 11.0967L7.205 9.84669ZM15.0675 1.1617L15.8775 10.525L17.1225 10.4175L16.3142 1.0542L15.0675 1.1617ZM15.875 1.07253L15.875 10.4717H17.125L17.125 1.07253H15.875ZM16.3142 1.0542C16.3167 1.08448 16.3121 1.11496 16.3022 1.14371C16.2924 1.17245 16.2766 1.19883 16.256 1.22116C16.2354 1.2435 16.2104 1.2613 16.1825 1.27344C16.1546 1.28559 16.1246 1.2918 16.0942 1.29169V0.0416946C15.4892 0.0416946 15.0158 0.560028 15.0675 1.1617L16.3133 1.05336L16.3142 1.0542ZM6.72083 14.5475C6.61689 15.1811 6.64641 15.8294 6.8075 16.4509L8.0175 16.1367C7.90005 15.6839 7.87848 15.2116 7.95417 14.75L6.72083 14.5475ZM11.8367 1.29169C12.0275 1.29203 12.2113 1.36382 12.3518 1.49292C12.4923 1.62203 12.5794 1.79908 12.5958 1.98919L13.8408 1.88169C13.7975 1.37989 13.5676 0.912571 13.1966 0.571941C12.8256 0.231312 12.3403 0.0421181 11.8367 0.0416946V1.29169ZM11.8108 11.495C11.2442 11.9834 10.6342 12.5642 10.23 13.32L11.3333 13.9084C11.6217 13.3675 12.0808 12.9117 12.6275 12.4417L11.8108 11.495ZM0.905001 8.73919C0.854828 9.02837 0.868488 9.32502 0.945023 9.60837C1.02155 9.89171 1.15911 10.1549 1.34806 10.3795C1.537 10.6041 1.77276 10.7846 2.03883 10.9085C2.3049 11.0324 2.59484 11.0966 2.88833 11.0967L2.88833 9.84669C2.41583 9.84669 2.055 9.42003 2.13667 8.95253L0.905001 8.73919ZM16.0942 1.29169C15.9725 1.29169 15.875 1.19336 15.875 1.07253H17.125C17.125 0.504194 16.6642 0.0416946 16.0942 0.0416946V1.29169ZM8.50667 11.3792C8.53773 11.1904 8.52735 10.9971 8.47624 10.8127C8.42512 10.6283 8.3345 10.4572 8.21067 10.3113C8.08683 10.1654 7.93273 10.0482 7.75908 9.96786C7.58542 9.88749 7.39635 9.84669 7.205 9.84669L7.205 11.0967C7.21517 11.0966 7.22522 11.098 7.23444 11.1023C7.24366 11.1066 7.25183 11.1128 7.25835 11.1206C7.26488 11.1284 7.2696 11.1376 7.27219 11.1474C7.27478 11.1572 7.27517 11.1675 7.27333 11.1775L8.50667 11.3792ZM13.2725 9.81669C13.2828 9.93737 13.2651 10.0588 13.2194 10.1709C13.1736 10.283 13.1018 10.3827 13.01 10.4617L13.8267 11.4092C14.0683 11.2008 14.257 10.9381 14.3773 10.6425C14.4975 10.347 14.5459 10.0271 14.5183 9.70919L13.2725 9.81753V9.81669Z" fill="#F8F8F8"/>
</svg>
