<svg width="26" height="22" viewBox="0 0 26 22" fill="none" xmlns="http://www.w3.org/2000/svg">
<path fill-rule="evenodd" clip-rule="evenodd" d="M9.5716 4.06179C9.96891 4.1701 10.3132 4.44695 10.4605 4.88431C10.5702 5.21 10.8423 5.3607 11.1182 5.40624C11.5382 5.47556 11.959 5.54049 12.38 5.60315L14.9082 5.96875C15.4086 6.04239 15.4686 6.17696 15.1993 6.60846C15.3082 6.78466 15.4259 6.95905 15.5277 7.14261C15.9362 7.87931 15.7851 8.50615 15.055 8.8867C14.542 9.15408 13.9951 9.35668 13.4548 9.56489C13.0823 9.70842 12.6952 9.81212 12.3146 9.93356C12.322 9.96628 12.3294 9.99899 12.3368 10.0318C12.5872 9.98637 12.8391 9.94779 13.0878 9.89414C13.4579 9.81423 13.8228 9.70481 14.1956 9.64515C14.4013 9.61223 14.6186 9.66208 14.8306 9.66183C14.9941 9.66158 15.1576 9.64354 15.3208 9.62962C15.8052 9.58823 16.2888 9.53513 16.7737 9.50477C17.5235 9.45773 18.2775 9.3662 19.0234 9.40928C19.4854 9.43593 19.938 9.66934 20.3906 9.8231C21.2275 10.1074 22.101 10.3187 22.8859 10.713C23.7882 11.1663 24.7033 11.3002 25.6772 11.2561C26.0835 11.2378 26.4911 11.2531 26.8981 11.2531C26.9051 11.2825 26.9121 11.312 26.9191 11.3415C26.252 11.6959 25.5087 11.7601 24.7532 11.778C24.7542 11.8331 24.7552 11.8881 24.7562 11.9432C25.4095 12.0323 26.0606 12.1558 26.7169 12.2009C27.3643 12.2454 28.0169 12.2107 28.6672 12.2107C28.6766 12.2443 28.686 12.278 28.6955 12.3117C28.4927 12.3914 28.292 12.4775 28.0863 12.5488C27.9333 12.6018 27.758 12.6063 27.6204 12.684C27.3167 12.8554 27.0305 13.0593 26.8017 13.208C26.8511 13.2374 26.9625 13.3038 27.0739 13.3702C26.9624 13.4378 26.8527 13.509 26.7385 13.5713C26.6913 13.597 26.6341 13.6031 26.5817 13.6189C25.4885 13.9476 24.4128 13.9817 23.3693 13.428C23.0468 13.2568 22.7202 13.0938 22.3709 12.9145C22.3188 13.1925 22.2896 13.4243 22.231 13.648C22.0121 14.4831 21.3566 14.9291 20.7165 15.3791C20.3342 15.6479 19.9311 15.8859 19.4832 16.1723C19.7753 16.4942 20.0579 16.7835 20.3137 17.0957C20.4713 17.2881 20.6438 17.4987 20.7101 17.7309C20.8163 18.1027 20.5646 18.4207 20.0608 18.5863C19.5935 18.7398 19.1157 18.8631 18.6373 18.9768C18.4392 19.0239 18.3489 19.0849 18.3279 19.3181C18.3112 19.5026 18.2075 19.7366 18.0663 19.8399C17.7509 20.0707 17.3869 20.2314 17.0448 20.4246C16.8325 20.5445 16.6043 20.6475 16.4214 20.8046C16.3055 20.9041 16.2697 21.0955 16.181 21.2344C15.8357 21.7759 15.541 21.792 15.1679 21.2896C15.1332 21.3149 15.0996 21.3425 15.0631 21.3655C14.6449 21.6294 14.3181 22.0656 13.7599 22.0734C13.7064 22.0742 13.6016 22.2361 13.6122 22.3094C13.6539 22.5986 13.4815 22.7323 13.2746 22.8148C13.0014 22.9237 12.7161 23.01 12.4286 23.0683C12.3057 23.0932 12.1113 23.0661 12.0469 22.9832C11.9881 22.9077 12.0211 22.7006 12.0833 22.5941C12.281 22.2558 12.5113 21.9372 12.7646 21.5578C12.4069 21.6149 12.0809 21.6816 11.7517 21.7145C11.5198 21.7377 11.2494 21.7898 11.0562 21.6978C10.5762 21.4692 10.2762 21.0357 10.1955 20.5051C10.0781 19.7337 10.0111 18.9538 9.93719 18.1761C9.90875 17.877 9.91861 17.5739 9.914 17.2726C9.91096 17.0735 9.83943 16.9858 9.63754 17.0687C9.78378 17.5978 9.77903 17.5866 9.28342 17.8074C8.6828 18.075 8.08973 18.3606 7.49655 18.6454C7.2701 18.7542 7.17009 18.9296 7.3632 19.147C7.69918 19.5254 8.04648 19.8937 8.39928 20.2558C8.58533 20.4467 8.78757 20.6228 8.99495 20.7893C9.04314 20.8279 9.16713 20.8336 9.21405 20.7974C9.51144 20.5679 9.76579 20.6881 9.96832 20.9155C10.1573 21.1275 10.3123 21.3771 10.4504 21.6285C10.5745 21.8542 10.4675 22.0352 10.2111 22.0331C10.0073 22.0314 9.79898 21.9878 9.60195 21.9298C9.29828 21.8405 9.00809 21.7001 8.70221 21.6225C8.17013 21.4873 7.74301 21.2169 7.42199 20.7564C7.20686 20.4477 6.99222 20.1261 6.72056 19.8743C6.35429 19.5348 6.20843 19.1234 6.13083 18.6489C6.08969 18.3973 6.13842 18.2119 6.32438 18.0544C6.67781 17.7552 7.03188 17.4568 7.3836 17.1555C7.72468 16.8633 7.72217 16.8628 7.4741 16.4748C7.43282 16.4101 7.40595 16.3351 7.37752 16.2628C7.10523 15.5709 6.8521 14.8704 6.55843 14.1882C6.07126 13.0561 5.56506 11.9325 5.05318 10.8117C4.79912 10.2555 4.61449 10.1814 4.03906 10.3292C3.9967 10.3401 3.9515 10.3424 3.9111 10.3581C3.2971 10.5966 2.63156 10.736 2.19969 11.3206C2.14081 11.4003 1.99466 11.4915 1.92186 11.4685C1.54965 11.3508 1.18646 11.2019 0.82543 11.0507C0.782286 11.0326 0.77302 10.9333 0.745173 10.8731C0.703599 10.7832 0.670849 10.6861 0.614273 10.6071C0.444543 10.3702 0.466066 10.1671 0.664329 9.9523C1.29324 9.27091 1.87817 8.56482 2.35677 7.74886C2.65475 7.2408 3.19831 6.88525 3.62008 6.44959C3.72029 6.34609 3.8031 6.20446 3.84306 6.06519C3.91027 5.83097 3.91851 5.57888 3.98768 5.34547C4.02573 5.21706 4.13746 5.11141 4.216 4.99548C4.33087 5.10219 4.47805 5.18986 4.55159 5.32082C4.6262 5.45368 4.62817 5.62918 4.669 5.8187C4.75122 5.7688 4.7928 5.73313 4.84069 5.71645C4.99459 5.66284 5.15084 5.61625 5.30615 5.56695C5.28904 5.72837 5.25595 5.89029 5.26105 6.05101C5.26394 6.14239 5.30581 6.27219 5.37209 6.31242C5.46882 6.37104 5.60276 6.3783 5.7218 6.38346C6.09053 6.3994 6.38616 6.55721 6.65507 6.81066C6.83578 6.98104 7.0739 7.08835 7.25196 7.26094C7.52156 7.52231 7.76282 7.81449 8.01099 8.0983C8.03251 8.12299 8.00697 8.18537 8.01874 8.2255C8.03884 8.29408 8.05654 8.37234 8.1009 8.42304C8.29726 8.64738 8.50277 8.86335 8.68353 9.05919C8.79124 8.71216 9.07339 8.51963 9.49821 8.54893C9.91915 8.57794 10.3462 8.64087 10.7462 8.36918C10.7102 8.31207 10.6924 8.24574 10.653 8.22715C10.2162 8.02149 9.92758 7.67185 9.69544 7.25323C9.56866 7.02468 9.35206 7.00309 9.11953 7.07578C9.10221 7.08119 9.08476 7.08737 9.06726 7.09394L8.96207 7.13506C8.80477 7.1948 8.65324 7.22561 8.55484 6.95489C8.47703 6.74077 8.24666 6.5015 8.29515 6.33903C8.41252 5.9455 8.19621 5.84741 7.94716 5.71164C7.73036 5.59346 7.71879 5.40058 7.88901 5.22899C7.97044 5.14693 8.066 5.04918 8.08987 4.94317C8.17601 4.56082 8.42776 4.3454 8.76158 4.23002C9.02466 4.13914 9.3321 3.99651 9.5716 4.06179ZM15.9885 12.5083C15.4501 13.1361 15.5247 13.7141 15.8678 14.3215C15.978 14.5165 16.0272 14.7578 16.0614 14.9847C16.1018 15.2527 16.0293 15.4698 15.7541 15.6169C15.1185 15.9565 14.5193 16.373 13.8679 16.6734C13.4712 16.8563 13.0021 16.8701 12.5709 16.9816C12.3427 17.0406 12.1259 17.1459 11.874 17.2417C11.7989 18.0948 11.7248 18.9711 11.6426 19.8466C11.6229 20.0566 11.5921 20.2684 11.538 20.4714C11.4655 20.743 11.5673 20.8307 11.8149 20.788C11.8828 20.7762 11.9511 20.766 12.0194 20.7567L12.4303 20.7045C12.7723 20.6595 13.1117 20.5986 13.4333 20.4312C13.6469 20.32 13.9122 20.3006 14.1576 20.2685C14.4184 20.2343 14.6153 20.1595 14.6728 19.8568C14.7306 19.5528 14.9875 19.539 15.2258 19.4825C15.3534 19.4522 15.5393 19.3593 15.5656 19.2584C15.6653 18.8759 15.9512 18.7562 16.2626 18.6884C16.4938 18.6381 16.5569 18.5467 16.5447 18.3054C16.5029 17.4805 16.4891 16.6542 16.4648 15.8283C16.4628 15.7615 16.4804 15.6874 16.4581 15.6289C16.2411 15.0606 16.0393 14.4845 15.7866 13.9329C15.6598 13.656 15.6103 13.4203 15.7485 13.1424C15.8363 12.9658 15.8905 12.7719 15.9885 12.5083ZM9.93636 16.1724C10.2097 16.6599 10.6875 16.8721 11.2063 17.0123C10.7815 16.7314 10.3524 16.4476 9.93636 16.1724ZM6.5179 3.93115C8.48107 0.944356 13.1553 -1.22243 17.8534 0.957801C20.2249 2.05836 21.894 3.9143 22.8419 6.44441C23.1705 7.32125 23.3882 8.22638 23.4352 9.23482C22.5742 8.93678 21.7814 8.67637 21.0017 8.37887C20.8701 8.32864 20.7466 8.13366 20.7013 7.97947C20.3449 6.76585 19.7583 5.68933 18.9587 4.73741C17.5098 3.01242 15.6871 1.96844 13.5085 1.69714C11.0552 1.3916 8.84319 2.06501 6.92109 3.71053C6.80628 3.80884 6.65318 3.85872 6.5179 3.93115Z" fill="white"/>
</svg>
