<svg width="26" height="18" viewBox="0 0 26 18" fill="none" xmlns="http://www.w3.org/2000/svg">
<path fill-rule="evenodd" clip-rule="evenodd" d="M8.2699 0.666108C9.06837 0.661961 9.86147 0.796894 10.6136 1.06486L10.9911 1.21111L12.0461 1.73861L12.4224 1.91611C12.507 1.94794 12.5951 1.96935 12.6849 1.97986L12.8236 1.98736H13.1761C13.2671 1.98822 13.3578 1.97772 13.4461 1.95611L13.5786 1.91611L13.7911 1.81861L14.7349 1.34486L15.0349 1.19861C15.7644 0.893451 16.5414 0.717089 17.3311 0.677358L17.7261 0.668609L18.0424 0.674858C20.5699 0.806108 22.7186 2.52111 23.3324 4.84611L23.4036 5.15236L25.2974 11.4799C25.7636 13.0349 25.4211 14.7049 24.3024 15.7949C23.4509 16.6208 22.3136 17.0864 21.1274 17.0949C20.409 17.092 19.7018 16.9171 19.0649 16.5849L18.7236 16.3949L17.7236 15.5711L14.3049 11.9761H11.6924L8.1999 15.6411L7.1749 16.4661C6.47284 16.8778 5.67374 17.0948 4.8599 17.0949C3.67778 17.0844 2.54516 16.6188 1.6974 15.7949C0.653648 14.7786 0.286148 13.2574 0.621148 11.7924L0.703648 11.4799L2.57865 5.22111C3.11615 2.57361 5.5024 0.663608 8.2699 0.666108ZM18.7661 9.15736C18.5533 8.94886 18.2672 8.83208 17.9693 8.83208C17.6713 8.83208 17.3852 8.94886 17.1724 9.15736C17.0677 9.2598 16.9845 9.38211 16.9277 9.51712C16.8709 9.65214 16.8417 9.79714 16.8417 9.94361C16.8417 10.0901 16.8709 10.2351 16.9277 10.3701C16.9845 10.5051 17.0677 10.6274 17.1724 10.7299C17.3852 10.9384 17.6713 11.0551 17.9693 11.0551C18.2672 11.0551 18.5533 10.9384 18.7661 10.7299C18.8708 10.6274 18.954 10.5051 19.0108 10.3701C19.0676 10.2351 19.0969 10.0901 19.0969 9.94361C19.0969 9.79714 19.0676 9.65214 19.0108 9.51712C18.954 9.38211 18.8708 9.2598 18.7661 9.15736ZM8.13115 4.77486C8.01378 4.77403 7.8974 4.79634 7.78865 4.84049C7.67989 4.88465 7.58091 4.94979 7.49733 5.03221C7.41376 5.11462 7.34724 5.21269 7.30157 5.32081C7.25589 5.42893 7.23197 5.54499 7.23115 5.66236V6.84486H6.03115C5.91367 6.84404 5.79719 6.86638 5.68836 6.91061C5.57953 6.95485 5.48048 7.0201 5.39689 7.10265C5.3133 7.18519 5.24681 7.28341 5.20121 7.39167C5.15561 7.49994 5.1318 7.61613 5.13115 7.73361C5.13115 8.22361 5.5349 8.62111 6.03115 8.62111H7.23115V9.80361C7.23115 10.2936 7.6349 10.6911 8.13115 10.6911C8.6274 10.6911 9.03115 10.2936 9.03115 9.80361V8.62111H10.2311C10.7274 8.62111 11.1311 8.22361 11.1311 7.73361C11.1303 7.61624 11.1064 7.50018 11.0607 7.39206C11.0151 7.28394 10.9485 7.18587 10.865 7.10346C10.7814 7.02104 10.6824 6.9559 10.5737 6.91174C10.4649 6.86759 10.3485 6.84529 10.2311 6.84611H9.03115V5.66236C9.03033 5.54499 9.0064 5.42893 8.96073 5.32081C8.91506 5.21269 8.84853 5.11462 8.76496 5.03221C8.68139 4.94979 8.5824 4.88465 8.47365 4.84049C8.3649 4.79634 8.24852 4.77403 8.13115 4.77486ZM20.9724 6.98361C20.7595 6.77473 20.4732 6.65772 20.1749 6.65772C19.8766 6.65772 19.5903 6.77473 19.3774 6.98361C19.2727 7.08605 19.1895 7.20836 19.1327 7.34337C19.0759 7.47839 19.0467 7.62339 19.0467 7.76986C19.0467 7.91633 19.0759 8.06133 19.1327 8.19634C19.1895 8.33136 19.2727 8.45367 19.3774 8.55611C19.5903 8.76498 19.8766 8.882 20.1749 8.882C20.4732 8.882 20.7595 8.76498 20.9724 8.55611C21.0771 8.45367 21.1603 8.33136 21.2171 8.19634C21.2739 8.06133 21.3031 7.91633 21.3031 7.76986C21.3031 7.62339 21.2739 7.47839 21.2171 7.34337C21.1603 7.20836 21.0771 7.08605 20.9724 6.98361ZM16.5599 6.98486C16.3472 6.77619 16.0612 6.65919 15.7633 6.65896C15.4653 6.65873 15.1792 6.77528 14.9661 6.98361C14.8616 7.08602 14.7786 7.20826 14.7219 7.34316C14.6653 7.47806 14.6361 7.62291 14.6361 7.76923C14.6361 7.91556 14.6653 8.06041 14.7219 8.19531C14.7786 8.33021 14.8616 8.45244 14.9661 8.55486C15.179 8.76373 15.4654 8.88075 15.7636 8.88075C16.0619 8.88075 16.3482 8.76373 16.5611 8.55486C16.6654 8.45238 16.7481 8.33015 16.8046 8.19533C16.8611 8.0605 16.8901 7.91577 16.89 7.7696C16.8898 7.62342 16.8606 7.47874 16.8039 7.344C16.7472 7.20926 16.6643 7.08717 16.5599 6.98486ZM18.7661 4.80986C18.5532 4.60098 18.2669 4.48397 17.9686 4.48397C17.6704 4.48397 17.384 4.60098 17.1711 4.80986C17.0665 4.91229 16.9833 5.03461 16.9265 5.16962C16.8697 5.30464 16.8404 5.44964 16.8404 5.59611C16.8404 5.74258 16.8697 5.88758 16.9265 6.02259C16.9833 6.15761 17.0665 6.27992 17.1711 6.38236C17.384 6.59123 17.6704 6.70825 17.9686 6.70825C18.2669 6.70825 18.5532 6.59123 18.7661 6.38236C18.8708 6.27992 18.954 6.15761 19.0108 6.02259C19.0676 5.88758 19.0969 5.74258 19.0969 5.59611C19.0969 5.44964 19.0676 5.30464 19.0108 5.16962C18.954 5.03461 18.8708 4.91229 18.7661 4.80986Z" fill="white"/>
</svg>
