<svg width="25" height="18" viewBox="0 0 25 18" fill="none" xmlns="http://www.w3.org/2000/svg">
<path d="M24.8489 8.47742C22.4952 3.88498 17.8355 0.777771 12.5 0.777771C7.16447 0.777771 2.50345 3.88715 0.151018 8.47786C0.0517306 8.67426 0 8.89125 0 9.11132C0 9.33139 0.0517306 9.54838 0.151018 9.74478C2.50475 14.3372 7.16447 17.4444 12.5 17.4444C17.8355 17.4444 22.4965 14.3351 24.8489 9.74435C24.9482 9.54795 25 9.33096 25 9.11089C25 8.89081 24.9482 8.67382 24.8489 8.47742ZM12.5 15.3611C11.2638 15.3611 10.0555 14.9945 9.02766 14.3078C7.99985 13.621 7.19878 12.6449 6.72573 11.5029C6.25268 10.3608 6.12891 9.10417 6.37007 7.89179C6.61123 6.67941 7.20648 5.56576 8.08056 4.69169C8.95464 3.81761 10.0683 3.22235 11.2807 2.9812C12.493 2.74004 13.7497 2.86381 14.8917 3.33686C16.0338 3.80991 17.0099 4.61098 17.6967 5.63879C18.3834 6.6666 18.75 7.87497 18.75 9.1111C18.7504 9.93198 18.589 10.7449 18.275 11.5033C17.9611 12.2618 17.5007 12.951 16.9203 13.5314C16.3398 14.1119 15.6507 14.5722 14.8922 14.8862C14.1338 15.2001 13.3208 15.3615 12.5 15.3611ZM12.5 4.94444C12.1281 4.94964 11.7586 5.00497 11.4015 5.10893C11.6958 5.50897 11.8371 6.00125 11.7996 6.4965C11.7621 6.99175 11.5484 7.45717 11.1972 7.80837C10.846 8.15957 10.3806 8.37327 9.88537 8.41074C9.39012 8.4482 8.89784 8.30695 8.49781 8.01258C8.27001 8.85181 8.31113 9.74135 8.61538 10.556C8.91962 11.3706 9.47167 12.0693 10.1938 12.5538C10.916 13.0382 11.7719 13.284 12.641 13.2566C13.5102 13.2291 14.3489 12.9298 15.039 12.4007C15.7291 11.8717 16.236 11.1395 16.4882 10.3073C16.7404 9.47506 16.7253 8.58471 16.445 7.76153C16.1647 6.93835 15.6333 6.22379 14.9256 5.71844C14.2179 5.21309 13.3696 4.94239 12.5 4.94444Z" fill="url(#paint0_linear_3_5338)"/>
<defs>
<linearGradient id="paint0_linear_3_5338" x1="11.5" y1="16.0555" x2="6.47445" y2="14.7631" gradientUnits="userSpaceOnUse">
<stop stop-color="#BDE877"/>
<stop offset="0.473958" stop-color="#9ADE8B"/>
<stop offset="1" stop-color="#88D692"/>
</linearGradient>
</defs>
</svg>
