<svg width="25" height="25" viewBox="0 0 25 25" fill="none" xmlns="http://www.w3.org/2000/svg">
<path d="M6.94525 7.95507C6.83392 9.14257 6.75579 11.2441 7.45697 12.1387C7.45697 12.1387 7.12689 9.83007 10.0859 6.93359C11.2773 5.76757 11.5527 4.18164 11.1367 2.99218C10.9003 2.31835 10.4687 1.76171 10.0937 1.37304C9.87494 1.14453 10.0429 0.767574 10.3613 0.781246C12.287 0.867183 15.4081 1.40234 16.7343 4.73046C17.3163 6.1914 17.3593 7.70117 17.082 9.23632C16.9062 10.2168 16.2812 12.3965 17.707 12.6641C18.7245 12.8555 19.2167 12.0469 19.4374 11.4648C19.5292 11.2227 19.8476 11.1621 20.0195 11.3555C21.7382 13.3105 21.8847 15.6133 21.5292 17.5957C20.8417 21.4277 16.9609 24.2168 13.1054 24.2168C8.289 24.2168 4.45501 21.4609 3.46087 16.4727C3.06048 14.459 3.26361 10.4746 6.36908 7.66211C6.59954 7.45117 6.9765 7.63867 6.94525 7.95507Z" fill="url(#paint0_radial_54_7656)"/>
<path d="M14.8651 15.1211C13.0897 12.836 13.8847 10.2285 14.3202 9.18948C14.3788 9.05276 14.2225 8.92386 14.0995 9.00784C13.3358 9.52737 11.7714 10.75 11.0429 12.4707C10.0565 14.7969 10.1268 15.9356 10.7108 17.3262C11.0624 18.1641 10.6542 18.3418 10.4491 18.3731C10.2499 18.4043 10.0663 18.2715 9.91981 18.1328C9.4984 17.7283 9.1981 17.2142 9.05262 16.6485C9.02137 16.5274 8.86317 16.4942 8.7909 16.5938C8.24403 17.3496 7.96083 18.5625 7.94716 19.42C7.90419 22.0703 10.0936 24.2188 12.7421 24.2188C16.08 24.2188 18.5116 20.5274 16.5936 17.4414C16.037 16.543 15.5136 15.9551 14.8651 15.1211Z" fill="url(#paint1_radial_54_7656)"/>
<defs>
<radialGradient id="paint0_radial_54_7656" cx="0" cy="0" r="1" gradientUnits="userSpaceOnUse" gradientTransform="translate(12.1515 24.2775) rotate(-179.751) scale(13.7867 22.6211)">
<stop offset="0.314" stop-color="#FF9800"/>
<stop offset="0.662" stop-color="#FF6D00"/>
<stop offset="0.972" stop-color="#F44336"/>
</radialGradient>
<radialGradient id="paint1_radial_54_7656" cx="0" cy="0" r="1" gradientUnits="userSpaceOnUse" gradientTransform="translate(12.9257 10.5583) rotate(90.5787) scale(14.4251 10.856)">
<stop offset="0.214" stop-color="#FFF176"/>
<stop offset="0.328" stop-color="#FFF27D"/>
<stop offset="0.487" stop-color="#FFF48F"/>
<stop offset="0.672" stop-color="#FFF7AD"/>
<stop offset="0.793" stop-color="#FFF9C4"/>
<stop offset="0.822" stop-color="#FFF8BD" stop-opacity="0.804"/>
<stop offset="0.863" stop-color="#FFF6AB" stop-opacity="0.529"/>
<stop offset="0.91" stop-color="#FFF38D" stop-opacity="0.209"/>
<stop offset="0.941" stop-color="#FFF176" stop-opacity="0"/>
</radialGradient>
</defs>
</svg>
