<svg width="20" height="19" viewBox="0 0 20 19" fill="none" xmlns="http://www.w3.org/2000/svg">
<path d="M2.85714 4.50001H17.1429C17.9006 4.50001 18.6273 4.80103 19.1632 5.33685C19.699 5.87266 20 6.59939 20 7.35715V11.6429C20 12.4006 19.699 13.1274 19.1632 13.6632C18.6273 14.199 17.9006 14.5 17.1429 14.5H2.85714C2.09938 14.5 1.37266 14.199 0.836838 13.6632C0.30102 13.1274 0 12.4006 0 11.6429V7.35715C0 6.59939 0.30102 5.87266 0.836838 5.33685C1.37266 4.80103 2.09938 4.50001 2.85714 4.50001ZM2.85714 5.92858C2.47826 5.92858 2.1149 6.07909 1.84699 6.347C1.57908 6.61491 1.42857 6.97827 1.42857 7.35715V11.6429C1.42857 12.0217 1.57908 12.3851 1.84699 12.653C2.1149 12.9209 2.47826 13.0714 2.85714 13.0714H17.1429C17.5217 13.0714 17.8851 12.9209 18.153 12.653C18.4209 12.3851 18.5714 12.0217 18.5714 11.6429V7.35715C18.5714 6.97827 18.4209 6.61491 18.153 6.347C17.8851 6.07909 17.5217 5.92858 17.1429 5.92858H2.85714ZM0 0.92858C0 0.73914 0.0752549 0.557458 0.209209 0.423504C0.343164 0.289549 0.524845 0.214294 0.714286 0.214294H19.2857C19.4752 0.214294 19.6568 0.289549 19.7908 0.423504C19.9247 0.557458 20 0.73914 20 0.92858C20 1.11802 19.9247 1.2997 19.7908 1.43366C19.6568 1.56761 19.4752 1.64287 19.2857 1.64287H0.714286C0.524845 1.64287 0.343164 1.56761 0.209209 1.43366C0.0752549 1.2997 0 1.11802 0 0.92858ZM0 18.0714C0 17.882 0.0752549 17.7003 0.209209 17.5664C0.343164 17.4324 0.524845 17.3572 0.714286 17.3572H19.2857C19.4752 17.3572 19.6568 17.4324 19.7908 17.5664C19.9247 17.7003 20 17.882 20 18.0714C20 18.2609 19.9247 18.4426 19.7908 18.5765C19.6568 18.7105 19.4752 18.7857 19.2857 18.7857H0.714286C0.524845 18.7857 0.343164 18.7105 0.209209 18.5765C0.0752549 18.4426 0 18.2609 0 18.0714Z" fill="#F8F8F8"/>
</svg>
