<svg width="20" height="21" viewBox="0 0 20 21" fill="none" xmlns="http://www.w3.org/2000/svg">
<path fill-rule="evenodd" clip-rule="evenodd" d="M1.53846 2.03846V8.19231H7.69231V2.03846H1.53846ZM0.769231 0.5C0.565218 0.5 0.369561 0.581044 0.225303 0.725303C0.0810439 0.869561 0 1.06522 0 1.26923V8.96154C0 9.16555 0.0810439 9.36121 0.225303 9.50547C0.369561 9.64973 0.565218 9.73077 0.769231 9.73077H8.46154C8.66555 9.73077 8.86121 9.64973 9.00547 9.50547C9.14973 9.36121 9.23077 9.16555 9.23077 8.96154V1.26923C9.23077 1.06522 9.14973 0.869561 9.00547 0.725303C8.86121 0.581044 8.66555 0.5 8.46154 0.5H0.769231ZM12.3077 2.03846V8.19231H18.4615V2.03846H12.3077ZM11.5385 0.5C11.3344 0.5 11.1388 0.581044 10.9945 0.725303C10.8503 0.869561 10.7692 1.06522 10.7692 1.26923V8.96154C10.7692 9.16555 10.8503 9.36121 10.9945 9.50547C11.1388 9.64973 11.3344 9.73077 11.5385 9.73077H19.2308C19.4348 9.73077 19.6304 9.64973 19.7747 9.50547C19.919 9.36121 20 9.16555 20 8.96154V1.26923C20 1.06522 19.919 0.869561 19.7747 0.725303C19.6304 0.581044 19.4348 0.5 19.2308 0.5H11.5385ZM1.53846 12.8077V18.9615H7.69231V12.8077H1.53846ZM0.769231 11.2692C0.565218 11.2692 0.369561 11.3503 0.225303 11.4945C0.0810439 11.6388 0 11.8344 0 12.0385V19.7308C0 19.9348 0.0810439 20.1304 0.225303 20.2747C0.369561 20.419 0.565218 20.5 0.769231 20.5H8.46154C8.66555 20.5 8.86121 20.419 9.00547 20.2747C9.14973 20.1304 9.23077 19.9348 9.23077 19.7308V12.0385C9.23077 11.8344 9.14973 11.6388 9.00547 11.4945C8.86121 11.3503 8.66555 11.2692 8.46154 11.2692H0.769231ZM12.3077 12.8077V18.9615H18.4615V12.8077H12.3077ZM11.5385 11.2692C11.3344 11.2692 11.1388 11.3503 10.9945 11.4945C10.8503 11.6388 10.7692 11.8344 10.7692 12.0385V19.7308C10.7692 19.9348 10.8503 20.1304 10.9945 20.2747C11.1388 20.419 11.3344 20.5 11.5385 20.5H19.2308C19.4348 20.5 19.6304 20.419 19.7747 20.2747C19.919 20.1304 20 19.9348 20 19.7308V12.0385C20 11.8344 19.919 11.6388 19.7747 11.4945C19.6304 11.3503 19.4348 11.2692 19.2308 11.2692H11.5385Z" fill="#F8F8F8"/>
</svg>
