<svg width="18" height="18" viewBox="0 0 18 18" fill="none" xmlns="http://www.w3.org/2000/svg">
<path d="M8.72917 0.776639L8.4575 0.214139L8.72833 0.776639H8.72917ZM1.5 7.52831L2.1225 7.47497C2.10815 7.3149 2.0327 7.16651 1.9118 7.06061C1.79091 6.95472 1.63387 6.89947 1.4733 6.90633C1.31273 6.9132 1.16098 6.98165 1.04957 7.09748C0.938149 7.2133 0.875632 7.36759 0.875 7.52831H1.5ZM15.8633 9.04747L15.275 12.4475L16.5075 12.6608L17.095 9.26081L15.8633 9.04747ZM10.0375 16.7083H6.16333V17.9583H10.0375V16.7083ZM5.40417 16.0108L4.7275 8.18331L3.48167 8.29081L4.15917 16.1183L5.40417 16.0108ZM15.275 12.4475C14.8525 14.8891 12.6508 16.7083 10.0375 16.7083V17.9583C13.2258 17.9583 15.9758 15.7341 16.5075 12.6608L15.275 12.4475ZM10.0458 3.24997L9.49333 6.62081L10.7267 6.82247L11.2792 3.45247L10.0458 3.24997ZM4.99 7.53831L6.18917 6.50497L5.3725 5.55831L4.175 6.59164L4.99 7.53831ZM8.37 3.14331L8.76667 1.61497L7.55667 1.30164L7.16 2.82914L8.37 3.14331ZM9.365 1.31497L9.48583 1.35414L9.86833 0.164139L9.7475 0.124973L9.365 1.31497ZM7.76917 4.67997C8.02948 4.1933 8.23117 3.67748 8.37 3.14331L7.16 2.82914C7.04607 3.268 6.88047 3.6918 6.66667 4.09164L7.77 4.67997H7.76917ZM9.48583 1.35414C9.60474 1.39018 9.71261 1.45567 9.79944 1.54453C9.88626 1.6334 9.94923 1.74276 9.9825 1.86247L11.1925 1.54914C11.1064 1.22539 10.9398 0.928665 10.7083 0.686525C10.4768 0.444386 10.1879 0.264691 9.86833 0.164139L9.48583 1.35414ZM8.76667 1.61497C8.78328 1.55495 8.81275 1.49926 8.85304 1.45177C8.89334 1.40428 8.94348 1.36614 9 1.33997L8.4575 0.214139C8.01417 0.427473 7.68083 0.822473 7.55667 1.30164L8.76667 1.61497ZM9 1.33997C9.11405 1.2855 9.24458 1.27656 9.365 1.31497L9.7475 0.124973C9.32193 -0.0114276 8.86026 0.0204835 8.4575 0.214139L8.99917 1.33997H9ZM10.795 8.15331H15.1117V6.90331H10.795V8.15331ZM2.9325 16.8383L2.1225 7.47497L0.8775 7.58247L1.68583 16.9458L2.9325 16.8383ZM2.125 16.9275V7.52831H0.875V16.9275H2.125ZM1.68583 16.9458C1.68329 16.9155 1.68791 16.885 1.69778 16.8563C1.70765 16.8275 1.72339 16.8012 1.744 16.7788C1.76461 16.7565 1.78964 16.7387 1.8175 16.7266C1.84536 16.7144 1.87544 16.7082 1.90583 16.7083V17.9583C2.51083 17.9583 2.98417 17.44 2.9325 16.8383L1.68667 16.9466L1.68583 16.9458ZM11.2792 3.45247C11.3831 2.81891 11.3536 2.17063 11.1925 1.54914L9.9825 1.86331C10.0999 2.31607 10.1215 2.78838 10.0458 3.24997L11.2792 3.45247ZM6.16333 16.7083C5.97251 16.708 5.78873 16.6362 5.64821 16.5071C5.50769 16.378 5.42062 16.2009 5.40417 16.0108L4.15917 16.1183C4.20253 16.6201 4.4324 17.0874 4.80342 17.4281C5.17444 17.7687 5.65966 17.9579 6.16333 17.9583V16.7083ZM6.18917 6.50497C6.75583 6.01664 7.36583 5.43581 7.77 4.67997L6.66667 4.09164C6.37833 4.63247 5.91917 5.08831 5.3725 5.55831L6.18917 6.50497ZM17.095 9.26081C17.1452 8.97163 17.1315 8.67498 17.055 8.39163C16.9784 8.10829 16.8409 7.84511 16.6519 7.62052C16.463 7.39593 16.2272 7.21536 15.9612 7.09147C15.6951 6.96758 15.4052 6.90336 15.1117 6.90331V8.15331C15.5842 8.15331 15.945 8.57997 15.8633 9.04747L17.095 9.26081ZM1.90583 16.7083C2.0275 16.7083 2.125 16.8066 2.125 16.9275H0.875C0.875 17.4958 1.33583 17.9583 1.90583 17.9583V16.7083ZM9.49333 6.62081C9.46227 6.80962 9.47265 7.00294 9.52376 7.18734C9.57488 7.37174 9.6655 7.54282 9.78933 7.68869C9.91317 7.83457 10.0673 7.95176 10.2409 8.03214C10.4146 8.11251 10.6036 8.15331 10.795 8.15331V6.90331C10.7848 6.90335 10.7748 6.90199 10.7656 6.8977C10.7563 6.89342 10.7482 6.88716 10.7416 6.87936C10.7351 6.87156 10.7304 6.86242 10.7278 6.85259C10.7252 6.84276 10.7248 6.83247 10.7267 6.82247L9.49333 6.62081ZM4.7275 8.18331C4.7172 8.06263 4.73487 7.94122 4.78065 7.82909C4.82643 7.71696 4.89818 7.61729 4.99 7.53831L4.17333 6.59081C3.93168 6.79917 3.74296 7.06194 3.62271 7.35749C3.50247 7.65304 3.45412 7.97292 3.48167 8.29081L4.7275 8.18247V8.18331Z" fill="white"/>
</svg>
