<svg width="25" height="19" viewBox="0 0 25 19" fill="none" xmlns="http://www.w3.org/2000/svg">
<path d="M5.42927 0.771134C5.54546 0.885751 5.63764 1.02186 5.70052 1.17168C5.76341 1.3215 5.79578 1.4821 5.79578 1.64428C5.79578 1.80647 5.76341 1.96706 5.70052 2.11688C5.63764 2.2667 5.54546 2.40281 5.42927 2.51743C3.55403 4.36963 2.50056 6.88157 2.50056 9.50076C2.50056 12.1199 3.55403 14.6319 5.42927 16.4841C5.54529 16.5987 5.63732 16.7349 5.70008 16.8846C5.76284 17.0344 5.79511 17.195 5.79505 17.3571C5.795 17.5192 5.76261 17.6797 5.69974 17.8294C5.63687 17.9791 5.54475 18.1152 5.42864 18.2298C5.31253 18.3443 5.17471 18.4352 5.02304 18.4972C4.87137 18.5592 4.70882 18.5911 4.54467 18.591C4.38053 18.5909 4.218 18.559 4.06637 18.4969C3.91475 18.4348 3.77699 18.3438 3.66096 18.2291C-1.22032 13.4086 -1.22032 5.59165 3.66096 0.771134C3.77702 0.656389 3.91485 0.56536 4.06656 0.503253C4.21827 0.441147 4.38089 0.40918 4.54511 0.40918C4.70934 0.40918 4.87196 0.441147 5.02367 0.503253C5.17538 0.56536 5.31321 0.656389 5.42927 0.771134ZM21.339 0.771134C26.2203 5.59288 26.2203 13.4086 21.339 18.2291C21.1033 18.454 20.7877 18.5783 20.46 18.5755C20.1323 18.5727 19.8189 18.4429 19.5872 18.2141C19.3555 17.9853 19.2241 17.6758 19.2212 17.3522C19.2184 17.0286 19.3443 16.7168 19.572 16.4841C21.4472 14.6319 22.5007 12.1199 22.5007 9.50076C22.5007 6.88157 21.4472 4.36963 19.572 2.51743C19.3375 2.28602 19.2057 1.9721 19.2056 1.64472C19.2055 1.31734 19.337 1.00332 19.5714 0.771751C19.8057 0.540178 20.1236 0.410016 20.4551 0.409901C20.7866 0.409785 21.1045 0.539724 21.339 0.771134ZM9.13709 4.31803C9.37137 4.54946 9.50298 4.86331 9.50298 5.19056C9.50298 5.5178 9.37137 5.83165 9.13709 6.06309C8.68215 6.51232 8.32126 7.04566 8.07504 7.63264C7.82882 8.21962 7.7021 8.84875 7.7021 9.4841C7.7021 10.1194 7.82882 10.7486 8.07504 11.3356C8.32126 11.9225 8.68215 12.4559 9.13709 12.9051C9.25645 13.019 9.35165 13.1551 9.41715 13.3057C9.48264 13.4563 9.51712 13.6182 9.51856 13.7821C9.52 13.9459 9.48838 14.1085 9.42555 14.2601C9.36271 14.4118 9.26992 14.5496 9.15258 14.6655C9.03524 14.7813 8.89571 14.873 8.74213 14.935C8.58855 14.9971 8.42399 15.0283 8.25806 15.0269C8.09213 15.0255 7.92814 14.9914 7.77568 14.9267C7.62321 14.8621 7.48531 14.768 7.37003 14.6502C5.98267 13.28 5.20326 11.4217 5.20326 9.4841C5.20326 7.54645 5.98267 5.68817 7.37003 4.31803C7.60438 4.08666 7.92219 3.95669 8.25356 3.95669C8.58493 3.95669 8.90274 4.08666 9.13709 4.31803ZM17.8337 4.31803C19.221 5.68817 20.0004 7.54645 20.0004 9.4841C20.0004 11.4217 19.221 13.28 17.8337 14.6502C17.7176 14.7648 17.5799 14.8558 17.4283 14.9179C17.2766 14.98 17.1141 15.012 16.95 15.012C16.7858 15.0121 16.6233 14.9802 16.4716 14.9182C16.3199 14.8562 16.1821 14.7654 16.066 14.6508C15.9499 14.5362 15.8578 14.4002 15.7949 14.2504C15.732 14.1007 15.6996 13.9402 15.6996 13.7781C15.6995 13.616 15.7318 13.4554 15.7945 13.3057C15.8573 13.1559 15.9493 13.0198 16.0654 12.9051C16.5203 12.4559 16.8812 11.9225 17.1274 11.3356C17.3736 10.7486 17.5004 10.1194 17.5004 9.4841C17.5004 8.84875 17.3736 8.21962 17.1274 7.63264C16.8812 7.04566 16.5203 6.51232 16.0654 6.06309C15.831 5.83151 15.6995 5.5175 15.6996 5.19012C15.6997 4.86274 15.8315 4.54882 16.066 4.31741C16.3005 4.086 16.6185 3.95606 16.95 3.95618C17.2815 3.95629 17.5993 4.08645 17.8337 4.31803ZM12.6012 7.73657C12.8474 7.73657 13.0911 7.78445 13.3186 7.87748C13.546 7.97051 13.7527 8.10687 13.9267 8.27877C14.1008 8.45067 14.2389 8.65474 14.3331 8.87934C14.4273 9.10394 14.4758 9.34466 14.4758 9.58776C14.4758 9.83087 14.4273 10.0716 14.3331 10.2962C14.2389 10.5208 14.1008 10.7249 13.9267 10.8968C13.7527 11.0687 13.546 11.205 13.3186 11.298C13.0911 11.3911 12.8474 11.439 12.6012 11.439C12.1041 11.439 11.6273 11.2439 11.2757 10.8968C10.9242 10.5496 10.7267 10.0787 10.7267 9.58776C10.7267 9.0968 10.9242 8.62594 11.2757 8.27877C11.6273 7.9316 12.1041 7.73657 12.6012 7.73657Z" fill="white"/>
</svg>
