<svg
    xmlns="http://www.w3.org/2000/svg"
    width="20"
    height="20"
    viewBox="0 0 25 25"
    fill="none"
  >
    <path
      d="M15.9431 3.08205C16.1156 3.1408 16.2856 3.20705 16.4556 3.27455L16.5243 3.30205C16.6898 3.3546 16.826 3.47362 16.9002 3.63059C16.9744 3.78755 16.98 3.96831 16.9156 4.12955C16.7678 4.46503 16.3836 4.62643 16.0406 4.49705L15.6431 4.3633C15.3418 4.2608 15.0568 4.1633 14.7681 4.08205C14.0718 3.89701 13.3535 3.80785 12.6331 3.81705C12.4306 3.81705 12.2281 3.81705 12.0256 3.8333C10.8326 3.88991 9.66502 4.19789 8.59932 4.73705C7.78816 5.15335 7.04746 5.69453 6.40432 6.3408C5.69866 7.03067 5.12618 7.84468 4.71557 8.74205C4.4594 9.31007 4.27587 9.90812 4.16932 10.5221C3.72766 12.8523 4.38325 15.2562 5.94682 17.0396C6.2936 17.4309 6.66969 17.7953 7.07182 18.1296C8.52307 17.1296 10.2131 15.9421 11.7831 14.6558C13.3375 13.4021 14.7942 12.0319 16.1406 10.5571C17.3686 9.20782 18.5208 7.79148 19.5918 6.31455C19.9756 5.79559 20.2848 5.22548 20.5106 4.6208C20.579 4.40955 20.5966 4.18512 20.5618 3.9658C20.5225 3.91264 20.4667 3.87397 20.4031 3.8558C20.1777 3.84472 19.9535 3.89345 19.7531 3.99705C19.6281 4.0583 19.5031 4.1133 19.3781 4.1658C19.0421 4.32199 18.6428 4.18447 18.4743 3.85455C18.4005 3.70071 18.3919 3.52355 18.4506 3.3633C18.5174 3.1912 18.6535 3.05511 18.8256 2.9883L19.0181 2.90955C19.2681 2.80455 19.5356 2.69705 19.8118 2.60955C20.3639 2.43857 20.9648 2.55388 21.4143 2.91705C21.6682 3.12956 21.842 3.42237 21.9068 3.74705C22.0094 4.212 21.9563 4.69779 21.7556 5.12955C21.5234 5.70595 21.2345 6.25783 20.8931 6.77705C20.8871 6.78592 20.8825 6.7956 20.8793 6.8058C21.6583 7.95987 22.1734 9.27136 22.3881 10.6471C22.4846 11.2179 22.5148 11.798 22.4781 12.3758C22.2664 15.6672 20.3517 18.6093 17.4281 20.1358C16.3255 20.7176 15.1295 21.1018 13.8943 21.2708C13.4626 21.3341 13.0269 21.3667 12.5906 21.3683L12.5931 21.3733C12.4664 21.3733 12.3393 21.3704 12.2118 21.3646C11.1563 21.3132 10.1137 21.109 9.11682 20.7583C8.37931 20.4957 7.67364 20.151 7.01307 19.7308C6.52067 20.0213 6.00763 20.2753 5.47807 20.4908C5.0923 20.6546 4.6814 20.7514 4.26307 20.7771H4.18682C3.78998 20.7814 3.40222 20.6583 3.08057 20.4258C2.79322 20.1972 2.59866 19.8721 2.53307 19.5108C2.46893 19.2009 2.49852 18.8789 2.61807 18.5858C2.90545 17.8153 3.31161 17.0945 3.82182 16.4496C3.83034 16.4383 3.83827 16.4266 3.84557 16.4146C3.84345 16.4018 3.8401 16.3892 3.83557 16.3771C3.46449 15.7202 3.17645 15.0199 2.97807 14.2921C2.72405 13.3943 2.61642 12.4615 2.65932 11.5296C2.71428 10.4598 2.95672 9.40796 3.37557 8.42205C3.92644 7.10258 4.77425 5.92796 5.85307 4.98955C7.20165 3.82073 8.83661 3.03129 10.5906 2.70205C11.0505 2.61482 11.515 2.55389 11.9818 2.51955C13.3268 2.43479 14.6749 2.62622 15.9431 3.08205ZM20.0331 7.99205C19.8318 8.24205 19.6331 8.49205 19.4343 8.74205C19.0593 9.2133 18.6843 9.68455 18.2931 10.1496C17.3728 11.2644 16.3882 12.3245 15.3443 13.3246C14.2561 14.3639 13.111 15.3421 11.9143 16.2546C11.2156 16.7871 10.4918 17.3096 9.78932 17.8146C9.45599 18.0571 9.12266 18.3 8.78932 18.5433C8.61182 18.6725 8.43599 18.8037 8.26182 18.9371L8.26057 18.9496C9.03398 19.392 9.87407 19.7061 10.7481 19.8796C11.3351 19.9983 11.9329 20.0557 12.5318 20.0508C12.7718 20.0508 13.0156 20.0433 13.2818 20.0283C13.9271 19.9873 14.5653 19.8702 15.1831 19.6796C16.3589 19.3251 17.4418 18.7151 18.3543 17.8933C19.1775 17.1777 19.8487 16.3042 20.3281 15.3246C20.8493 14.2529 21.1064 13.0721 21.0781 11.8808C21.0877 11.3132 21.0285 10.7466 20.9018 10.1933C20.734 9.41715 20.4406 8.67361 20.0331 7.99205ZM4.64057 17.6133L4.53932 17.7833C4.39932 18.0158 4.25932 18.2471 4.13057 18.4846C3.97747 18.732 3.89132 19.015 3.88057 19.3058C3.90648 19.3755 3.95603 19.4339 4.02057 19.4708H4.06307L4.06432 19.4683H4.28932C4.46085 19.4698 4.63092 19.4366 4.78932 19.3708C5.12807 19.2283 5.47057 19.0658 5.80182 18.9096L5.84932 18.8871H5.86057L5.75057 18.7783C5.50057 18.5346 5.25057 18.2921 5.01557 18.0421C4.88641 17.9054 4.76141 17.765 4.64057 17.6208V17.6133ZM15.1481 16.3271C15.275 16.3271 15.3894 16.4035 15.4379 16.5207C15.4865 16.638 15.4597 16.7729 15.3699 16.8627C15.2802 16.9524 15.1452 16.9792 15.028 16.9307C14.9108 16.8821 14.8343 16.7677 14.8343 16.6408C14.8343 16.4675 14.9748 16.3271 15.1481 16.3271ZM8.0337 11.7502L8.13125 11.7587C8.43085 11.7583 8.67124 11.9666 8.72109 12.2412L8.73057 12.3471C8.73057 12.6722 8.46698 12.9358 8.14182 12.9358C8.02742 12.9358 7.92063 12.9032 7.83027 12.8467C7.61786 12.7648 7.46682 12.5586 7.46682 12.3171C7.46682 12.004 7.72062 11.7502 8.0337 11.7502ZM11.0043 6.05955C11.6878 6.05955 12.2418 6.6136 12.2418 7.29705C12.2418 7.9805 11.6878 8.53455 11.0043 8.53455C10.3209 8.53455 9.76682 7.9805 9.76682 7.29705C9.76682 6.96885 9.8972 6.65408 10.1293 6.42201C10.3614 6.18993 10.6761 6.05955 11.0043 6.05955Z"
      fill="white"
    />
  </svg>