<svg width="200" height="200" viewBox="0 0 200 200" fill="none" xmlns="http://www.w3.org/2000/svg">
<path d="M153.751 166.45H157.379V168.695H153.751V166.45Z" fill="#E9E8E8"/>
<path d="M154.798 167.573C154.798 168.208 154.313 168.695 153.676 168.695C153.04 168.695 152.553 168.209 152.553 167.573C152.553 166.936 153.039 166.45 153.676 166.45C154.312 166.45 154.798 166.974 154.798 167.573ZM158.465 167.573C158.465 168.208 157.978 168.695 157.342 168.695C156.706 168.695 156.22 168.209 156.22 167.573C156.22 166.936 156.705 166.45 157.342 166.45C157.978 166.45 158.465 166.974 158.465 167.573ZM49.7452 166.45H148.027V168.695H49.7452V166.45Z" fill="#E9E8E8"/>
<path d="M149.112 167.573C149.112 168.208 148.626 168.695 147.989 168.695C147.353 168.695 146.867 168.209 146.867 167.573C146.867 166.936 147.353 166.45 147.989 166.45C148.625 166.45 149.112 166.974 149.112 167.573ZM50.8672 167.573C50.8672 168.208 50.3811 168.695 49.7448 168.695C49.1089 168.695 48.622 168.209 48.622 167.573C48.622 166.936 49.1085 166.45 49.7448 166.45C50.3433 166.45 50.8672 166.974 50.8672 167.573Z" fill="#E9E8E8"/>
<path d="M90.8608 172.212C90.8607 172.443 90.9062 172.671 90.9945 172.885C91.0828 173.098 91.2123 173.292 91.3756 173.455C91.5389 173.619 91.7327 173.748 91.9461 173.837C92.1595 173.925 92.3882 173.97 92.6191 173.97C92.8501 173.97 93.0788 173.925 93.2921 173.837C93.5055 173.748 93.6994 173.619 93.8627 173.455C94.0259 173.292 94.1554 173.098 94.2438 172.885C94.3321 172.671 94.3775 172.443 94.3775 172.212C94.3775 171.981 94.3321 171.752 94.2438 171.538C94.1554 171.325 94.0259 171.131 93.8627 170.968C93.6994 170.805 93.5055 170.675 93.2921 170.587C93.0788 170.498 92.8501 170.453 92.6191 170.453C92.3882 170.453 92.1595 170.498 91.9461 170.587C91.7327 170.675 91.5389 170.805 91.3756 170.968C91.2123 171.131 91.0828 171.325 90.9945 171.538C90.9062 171.752 90.8607 171.981 90.8608 172.212V172.212Z" fill="#E9E8E8"/>
<path d="M68.6006 170.865H87.4939V173.109H68.6006V170.865ZM98.5678 170.865H118.658V173.109H98.5678V170.865Z" fill="#E9E8E8"/>
<path d="M69.6486 171.987C69.6486 172.623 69.1621 173.109 68.5261 173.109C67.8902 173.109 67.4034 172.623 67.4034 171.987C67.4034 171.351 67.8898 170.864 68.5261 170.864C69.1621 170.865 69.6486 171.388 69.6486 171.987ZM88.6538 171.987C88.6538 172.623 88.1673 173.109 87.531 173.109C86.8951 173.109 86.4082 172.623 86.4082 171.987C86.4082 171.351 86.8947 170.864 87.531 170.864C88.1299 170.865 88.6538 171.388 88.6538 171.987ZM99.6154 171.987C99.6154 172.623 99.1292 173.109 98.4929 173.109C97.857 173.109 97.3702 172.623 97.3702 171.987C97.3702 171.351 97.8566 170.864 98.4929 170.864C99.0918 170.865 99.6154 171.388 99.6154 171.987ZM119.743 171.987C119.743 172.623 119.257 173.109 118.621 173.109C117.985 173.109 117.498 172.623 117.498 171.987C117.498 171.351 117.984 170.864 118.621 170.864C119.257 170.865 119.743 171.388 119.743 171.987Z" fill="#E9E8E8"/>
<path d="M118.397 175.541H136.691V177.786H118.397V175.541ZM143.874 175.541H152.255V177.786H143.874V175.541Z" fill="#E9E8E8"/>
<path d="M119.519 176.663C119.519 177.3 119.033 177.786 118.396 177.786C117.76 177.786 117.274 177.3 117.274 176.663C117.274 176.028 117.76 175.541 118.396 175.541C118.995 175.541 119.519 176.065 119.519 176.663ZM153.489 176.663C153.489 177.3 153.003 177.786 152.366 177.786C151.73 177.786 151.244 177.3 151.244 176.663C151.244 176.028 151.73 175.541 152.366 175.541C153.003 175.541 153.489 176.065 153.489 176.663ZM138.711 177.786C138.488 177.454 138.371 177.063 138.374 176.663C138.374 175.579 139.273 174.681 140.357 174.681C141.442 174.681 142.34 175.579 142.34 176.663C142.344 177.063 142.226 177.454 142.003 177.786H144.472C144.548 177.48 144.586 177.166 144.584 176.851C144.584 174.569 142.714 172.698 140.431 172.698C138.149 172.698 136.279 174.569 136.279 176.851C136.279 177.15 136.316 177.487 136.392 177.786H138.711V177.786ZM115.59 176.663C115.59 177.3 115.105 177.786 114.468 177.786H112.597C111.961 177.786 111.475 177.3 111.475 176.663C111.475 176.028 111.961 175.541 112.597 175.541H114.468C115.067 175.541 115.59 176.065 115.59 176.663Z" fill="#E9E8E8"/>
<path d="M44.6571 44.1504C42.6374 46.2454 39.3068 46.2832 37.2126 44.2624L33.7705 40.9326C31.6755 38.9125 31.6376 35.5827 33.6581 33.4877C35.6782 31.3923 39.0084 31.3552 41.1026 33.3753L44.5448 36.7051C46.6401 38.763 46.6776 42.0928 44.6571 44.1504V44.1504Z" fill="#E9E8E8"/>
<path d="M91.3847 29.0734C91.3847 29.2228 91.1604 29.3726 90.8986 29.3726H85.848C85.5858 29.3726 85.3619 29.2228 85.3619 29.0734V28.2876C85.3619 28.1382 85.5862 27.9884 85.848 27.9884H90.8986C91.1608 27.9884 91.3847 28.1382 91.3847 28.2876V29.0734Z" fill="#E9E8E8"/>
<path d="M88.0175 31.6922C87.8677 31.6922 87.7187 31.4675 87.7187 31.2053V26.1547C87.7187 25.8933 87.8681 25.6686 88.0175 25.6686H88.8032C88.9534 25.6686 89.1025 25.8933 89.1025 26.1547V31.2053C89.1025 31.4675 88.953 31.6922 88.8032 31.6922H88.0175V31.6922Z" fill="#E9E8E8"/>
<path d="M118.77 23.0122C116.189 23.0122 114.131 25.1072 114.131 27.6513C114.131 30.1957 116.226 32.2907 118.77 32.2907C121.352 32.2907 123.409 30.1957 123.409 27.6513C123.409 25.1072 121.314 23.0122 118.77 23.0122V23.0122ZM118.696 29.8586C117.498 29.8586 116.563 28.886 116.563 27.7262C116.563 26.5663 117.536 25.5933 118.696 25.5933C119.855 25.5933 120.828 26.5663 120.828 27.7262C120.828 28.886 119.855 29.8586 118.696 29.8586Z" fill="#E9E8E8"/>
<path d="M95.425 64.9513C95.425 65.7452 95.7403 66.5065 96.3016 67.0678C96.8629 67.6291 97.6242 67.9444 98.418 67.9444C99.2119 67.9444 99.9732 67.6291 100.534 67.0678C101.096 66.5065 101.411 65.7452 101.411 64.9513C101.411 64.1575 101.096 63.3962 100.534 62.8349C99.9732 62.2736 99.2119 61.9583 98.418 61.9583C97.6242 61.9583 96.8629 62.2736 96.3016 62.8349C95.7403 63.3962 95.425 64.1575 95.425 64.9513V64.9513Z" fill="#E9E8E8"/>
<path d="M53.6734 85.3035C53.6734 85.5393 53.7197 85.7729 53.81 85.9908C53.9002 86.2088 54.0324 86.4068 54.1992 86.5736C54.366 86.7405 54.5639 86.8728 54.7819 86.9631C54.9998 87.0533 55.2333 87.0998 55.4692 87.0998C55.7051 87.0998 55.9386 87.0533 56.1566 86.9631C56.3745 86.8728 56.5725 86.7405 56.7392 86.5736C56.906 86.4068 57.0382 86.2088 57.1285 85.9908C57.2187 85.7729 57.2651 85.5393 57.265 85.3035C57.2651 85.0676 57.2187 84.834 57.1285 84.6161C57.0382 84.3981 56.906 84.2001 56.7392 84.0333C56.5725 83.8664 56.3745 83.7341 56.1566 83.6438C55.9386 83.5535 55.7051 83.5071 55.4692 83.5071C55.2333 83.5071 54.9998 83.5535 54.7819 83.6438C54.5639 83.7341 54.366 83.8664 54.1992 84.0333C54.0324 84.2001 53.9002 84.3981 53.81 84.6161C53.7197 84.834 53.6734 85.0676 53.6734 85.3035Z" fill="#E9E8E8"/>
<path d="M172.494 133.715L163.889 125.821C164.825 121.444 165.311 116.879 165.311 112.24C165.311 76.1006 136.017 46.7693 99.8397 46.7693C90.7485 46.7693 82.1066 48.64 74.2123 51.9694L66.6176 44.0754C65.8323 43.2523 64.4852 43.2152 63.662 44.0384C62.8396 44.8237 62.8017 46.1704 63.6245 46.9936L70.2466 53.84C71.7432 55.8976 71.593 58.7413 69.7976 60.649C67.7775 62.7819 64.4103 62.8564 62.2778 60.7988L60.9685 59.5266L53.336 52.1192C51.2784 50.1365 48.0606 50.2114 46.078 52.2311C44.0953 54.2887 44.1702 57.5065 46.1903 59.4895L54.8325 67.8696C55.6349 68.8309 56.0618 70.0503 56.0343 71.3021C56.0067 72.554 55.5266 73.7535 54.6827 74.6785C52.7375 76.8114 49.4452 76.9608 47.3498 75.0152L46.5266 74.267L46.4892 74.304L39.0443 67.4951C35.8269 64.5769 30.8886 64.8016 27.933 67.9816C25.0148 71.199 25.2395 76.1373 28.4194 79.0929L38.82 88.5957C35.9763 95.9286 34.4427 103.859 34.4427 112.166C34.4427 133.789 44.9181 152.945 61.0427 164.879H138.748C142.309 162.252 145.593 159.268 148.55 155.975L151.991 159.118C155.209 162.036 160.147 161.811 163.103 158.631C166.058 155.451 165.797 150.475 162.617 147.52L157.678 142.993V142.956L150.645 136.521C149.148 135.174 149.036 132.854 150.42 131.358C151.804 129.861 154.087 129.749 155.583 131.133L160.896 135.997V135.959L166.096 140.711C168.041 142.507 171.109 142.357 172.905 140.412C174.59 138.541 174.477 135.51 172.494 133.715V133.715ZM50.8672 110.632C50.8672 110.781 50.6425 110.93 50.3811 110.93H48.5479V112.764C48.5479 113.025 48.3977 113.25 48.2487 113.25H47.4626C47.3131 113.25 47.1633 113.025 47.1633 112.764V110.93H45.3301C45.0683 110.93 44.844 110.78 44.844 110.632V109.845C44.844 109.696 45.0687 109.546 45.3301 109.546H47.1633V107.713C47.1633 107.451 47.3135 107.226 47.4626 107.226H48.2487C48.3981 107.226 48.5479 107.452 48.5479 107.713V109.546H50.3811C50.6429 109.546 50.8672 109.696 50.8672 109.845V110.632ZM55.4322 89.5683C53.1124 89.5683 51.2043 87.6976 51.2043 85.3408C51.2043 82.9841 53.075 81.1134 55.4322 81.1134C57.7511 81.1134 59.6596 82.9841 59.6596 85.3408C59.6596 87.6976 57.7511 89.5683 55.4322 89.5683ZM98.4181 70.3013C95.3879 70.3013 92.9562 67.8696 92.9562 64.8394C92.9562 61.8093 95.3879 59.3776 98.4181 59.3776C101.449 59.3776 103.88 61.8093 103.88 64.8394C103.88 67.8696 101.449 70.3013 98.4181 70.3013V70.3013ZM139.235 74.3419C139.235 74.4913 139.01 74.6411 138.749 74.6411H136.915V76.4739C136.915 76.7361 136.766 76.9604 136.617 76.9604H135.831C135.681 76.9604 135.531 76.7357 135.531 76.4739V74.6411H133.698C133.436 74.6411 133.212 74.4913 133.212 74.3419V73.5936C133.212 73.4438 133.436 73.294 133.698 73.294H135.531V71.4611C135.531 71.199 135.681 70.975 135.831 70.975H136.617C136.766 70.975 136.915 71.1993 136.915 71.4611V73.294H138.749C139.01 73.294 139.235 73.4438 139.235 73.5936V74.3419Z" fill="#E4E4E4"/>
<path d="M130.986 118.199C126.904 115.236 121.974 113.643 116.915 113.651C106.775 113.651 98.1126 119.92 94.6578 128.759H72.7836C71.3365 128.759 69.9486 128.19 68.9253 127.176C67.902 126.162 67.3271 124.786 67.3271 123.352V116.142C67.3271 114.708 67.902 113.333 68.9253 112.319C69.9486 111.304 71.3365 110.735 72.7836 110.735H125.53C126.977 110.735 128.365 111.304 129.388 112.319C130.411 113.333 130.986 114.708 130.986 116.142V118.199V118.199ZM93.4 133.266C93.1696 134.597 93.054 135.946 93.0545 137.297C93.0545 142.533 94.7732 147.373 97.6797 151.29H72.7836C71.3365 151.29 69.9486 150.721 68.9253 149.706C67.902 148.692 67.3271 147.317 67.3271 145.883V138.673C67.3271 137.963 67.4683 137.26 67.7425 136.604C68.0167 135.948 68.4186 135.351 68.9253 134.849C69.432 134.347 70.0335 133.949 70.6955 133.677C71.3575 133.405 72.0671 133.266 72.7836 133.266H93.4ZM72.7836 88.2039H125.53C126.977 88.2039 128.365 88.7736 129.388 89.7876C130.411 90.8017 130.986 92.1771 130.986 93.6113V100.821C130.986 102.255 130.411 103.631 129.388 104.645C128.365 105.659 126.977 106.229 125.53 106.229H72.7836C71.3365 106.229 69.9486 105.659 68.9253 104.645C67.902 103.631 67.3271 102.255 67.3271 100.821V93.6113C67.3271 92.1771 67.902 90.8017 68.9253 89.7876C69.9486 88.7736 71.3365 88.2039 72.7836 88.2039V88.2039ZM116.005 155.796C105.695 155.796 97.3378 147.514 97.3378 137.297C97.3378 127.079 105.695 118.797 116.005 118.797C126.315 118.797 134.673 127.079 134.673 137.297C134.673 147.514 126.315 155.796 116.005 155.796V155.796Z" fill="white"/>
<path d="M115.791 118.798V135.849L126.028 152.907C123.035 154.799 119.557 155.802 116.006 155.796C105.695 155.796 97.3378 147.514 97.3378 137.297C97.3378 127.151 105.58 118.912 115.791 118.798V118.798ZM74.6025 92.71C75.0848 92.71 75.5475 92.8999 75.8886 93.2379C76.2297 93.5759 76.4213 94.0344 76.4213 94.5124V99.0186C76.4213 99.4966 76.2297 99.9551 75.8886 100.293C75.5475 100.631 75.0848 100.821 74.6025 100.821C74.1201 100.821 73.6574 100.631 73.3164 100.293C72.9753 99.9551 72.7836 99.4966 72.7836 99.0186V94.5124C72.7836 94.2757 72.8307 94.0413 72.9221 93.8227C73.0135 93.604 73.1475 93.4053 73.3164 93.2379C73.4852 93.0705 73.6858 92.9377 73.9064 92.8472C74.1271 92.7566 74.3636 92.71 74.6025 92.71ZM74.6025 116.142C74.8413 116.142 75.0778 116.189 75.2985 116.279C75.5192 116.37 75.7197 116.503 75.8886 116.67C76.0575 116.837 76.1914 117.036 76.2828 117.255C76.3742 117.473 76.4213 117.708 76.4213 117.945V122.451C76.4213 122.929 76.2297 123.387 75.8886 123.725C75.5475 124.063 75.0848 124.253 74.6025 124.253C74.1201 124.253 73.6574 124.063 73.3164 123.725C72.9753 123.387 72.7836 122.929 72.7836 122.451V117.945C72.7836 117.708 72.8307 117.473 72.9221 117.255C73.0135 117.036 73.1475 116.837 73.3164 116.67C73.4852 116.503 73.6858 116.37 73.9064 116.279C74.1271 116.189 74.3636 116.142 74.6025 116.142V116.142ZM74.6025 138.673C74.8413 138.673 75.0778 138.72 75.2985 138.81C75.5192 138.901 75.7197 139.033 75.8886 139.201C76.0575 139.368 76.1914 139.567 76.2828 139.786C76.3742 140.004 76.4213 140.239 76.4213 140.475V144.982C76.4213 145.46 76.2297 145.918 75.8886 146.256C75.5475 146.594 75.0848 146.784 74.6025 146.784C74.1201 146.784 73.6574 146.594 73.3164 146.256C72.9753 145.918 72.7836 145.46 72.7836 144.982V140.475C72.7836 140.239 72.8307 140.004 72.9221 139.786C73.0135 139.567 73.1475 139.368 73.3164 139.201C73.4852 139.033 73.6858 138.901 73.9064 138.81C74.1271 138.72 74.3636 138.673 74.6025 138.673V138.673ZM81.8778 92.71C82.1166 92.71 82.3531 92.7566 82.5738 92.8472C82.7945 92.9377 82.995 93.0705 83.1639 93.2379C83.3328 93.4053 83.4667 93.604 83.5581 93.8227C83.6495 94.0413 83.6966 94.2757 83.6966 94.5124V99.0186C83.6966 99.4966 83.505 99.9551 83.1639 100.293C82.8228 100.631 82.3601 100.821 81.8778 100.821C81.3954 100.821 80.9328 100.631 80.5917 100.293C80.2506 99.9551 80.0589 99.4966 80.0589 99.0186V94.5124C80.0589 94.0344 80.2506 93.5759 80.5917 93.2379C80.9328 92.8999 81.3954 92.71 81.8778 92.71ZM81.8778 116.142C82.1166 116.142 82.3531 116.189 82.5738 116.279C82.7945 116.37 82.995 116.503 83.1639 116.67C83.3328 116.837 83.4667 117.036 83.5581 117.255C83.6495 117.473 83.6966 117.708 83.6966 117.945V122.451C83.6966 122.929 83.505 123.387 83.1639 123.725C82.8228 124.063 82.3601 124.253 81.8778 124.253C81.3954 124.253 80.9328 124.063 80.5917 123.725C80.2506 123.387 80.0589 122.929 80.0589 122.451V117.945C80.0589 117.708 80.106 117.473 80.1974 117.255C80.2888 117.036 80.4228 116.837 80.5917 116.67C80.7606 116.503 80.9611 116.37 81.1817 116.279C81.4024 116.189 81.6389 116.142 81.8778 116.142ZM81.8778 138.673C82.1166 138.673 82.3531 138.72 82.5738 138.81C82.7945 138.901 82.995 139.033 83.1639 139.201C83.3328 139.368 83.4667 139.567 83.5581 139.786C83.6495 140.004 83.6966 140.239 83.6966 140.475V144.982C83.6966 145.46 83.505 145.918 83.1639 146.256C82.8228 146.594 82.3601 146.784 81.8778 146.784C81.3954 146.784 80.9328 146.594 80.5917 146.256C80.2506 145.918 80.0589 145.46 80.0589 144.982V140.475C80.0589 140.239 80.106 140.004 80.1974 139.786C80.2888 139.567 80.4228 139.368 80.5917 139.201C80.7606 139.033 80.9611 138.901 81.1817 138.81C81.4024 138.72 81.6389 138.673 81.8778 138.673Z" fill="#CECECE"/>
</svg>
