 <svg
    xmlns="http://www.w3.org/2000/svg"
    width="20"
    height="20"
    viewBox="0 0 25 25"
    fill="none"
  >
    <path
      fill-rule="evenodd"
      clip-rule="evenodd"
      d="M5.82918 5.1576C6.95899 3.701 8.71309 2.59814 11.1182 2.59814C13.5229 2.59814 15.277 3.70104 16.4069 5.15756C17.5154 6.58654 18.0314 8.36024 18.0314 9.80423C18.0314 10.2124 18.019 10.5163 18.0097 10.7443C18.0077 10.7909 18.006 10.8343 18.0045 10.8748C17.9953 11.1191 17.998 11.2227 18.014 11.322C18.0525 11.56 18.1751 11.8618 18.7224 13.0678C18.729 13.0825 18.7353 13.0974 18.7412 13.1125C19.15 14.1647 19.0609 15.1455 18.5675 15.9778C18.1003 16.7658 17.3219 17.3362 16.4995 17.7465C14.855 18.5669 12.6924 18.9166 11.1182 18.9166C9.54365 18.9166 7.38078 18.5669 5.73625 17.7465C4.91386 17.3362 4.13541 16.7658 3.66834 15.9777C3.17503 15.1453 3.08619 14.1645 3.49533 13.1123C3.50116 13.0973 3.50741 13.0824 3.51406 13.0678C4.06128 11.8618 4.18397 11.56 4.22242 11.322C4.23846 11.2227 4.24111 11.1191 4.23197 10.8748C4.23045 10.8343 4.22867 10.7909 4.22677 10.7443C4.21743 10.5163 4.20499 10.2124 4.20499 9.80423C4.20499 8.36033 4.72076 6.58663 5.82918 5.1576ZM7.21369 6.23149C6.35568 7.33767 5.95716 8.72897 5.95716 9.80423C5.95716 10.1737 5.968 10.4397 5.97724 10.6664C5.97925 10.7157 5.98119 10.7631 5.98291 10.8093C5.99239 11.0624 5.99814 11.3169 5.95216 11.6015C5.8684 12.1199 5.61591 12.6762 5.14156 13.7215L5.12033 13.7682C4.90296 14.3415 4.97722 14.7495 5.17569 15.0844C5.40282 15.4676 5.85028 15.8453 6.51842 16.1786C7.85494 16.8453 9.7316 17.1645 11.1182 17.1645C12.5043 17.1645 14.3808 16.8453 15.7173 16.1786C16.3855 15.8453 16.833 15.4676 17.0603 15.0842C17.2589 14.7493 17.3332 14.3413 17.116 13.7681L17.0949 13.7215C16.6205 12.6762 16.368 12.1199 16.2843 11.6015C16.2383 11.3169 16.244 11.0624 16.2535 10.8093C16.2552 10.7631 16.2572 10.7157 16.2592 10.6664C16.2684 10.4397 16.2793 10.1737 16.2793 9.80423C16.2793 8.72906 15.8806 7.33776 15.0224 6.23153C14.1856 5.15284 12.9211 4.35032 11.1182 4.35032C9.31478 4.35032 8.05031 5.15288 7.21369 6.23149Z"
      fill="white"
    />
    <path
      fill-rule="evenodd"
      clip-rule="evenodd"
      d="M8.34179 19.9029C8.70264 19.5806 9.25647 19.6118 9.5788 19.9726C10.4672 20.9673 11.7739 20.9589 12.6575 19.9719C12.9802 19.6114 13.5341 19.5808 13.8946 19.9035C14.2551 20.2263 14.2857 20.7801 13.963 21.1406C12.3897 22.8979 9.8639 22.922 8.27203 21.1399C7.9497 20.779 7.98093 20.2252 8.34179 19.9029Z"
      fill="white"
    />
    <circle cx="16.5" cy="5.03271" r="3" fill="#FF0606" stroke="#1C1C26" />
  </svg>