<svg
    xmlns="http://www.w3.org/2000/svg"
    width="20"
    height="20"
    viewBox="0 0 23 23"
    fill="none"
  >
    <g clip-path="url(#clip0_54_7066)">
      <path
        fill-rule="evenodd"
        clip-rule="evenodd"
        d="M20.6326 5.75C21.4153 5.75 22.0416 6.38474 22.0416 7.17817V9.29397C22.0416 10.0874 21.4153 10.7221 20.6326 10.7221L20.3712 10.7218L20.3716 17.9159C20.3716 20.1903 18.5451 22.0417 16.3011 22.0417H6.43783C4.19381 22.0417 2.36729 20.1903 2.36729 17.9159V10.7221C1.58449 10.7221 0.958252 10.0874 0.958252 9.29397V7.17817C0.958252 6.38474 1.58449 5.75 2.36729 5.75H20.6326ZM19.3276 10.7218H3.41063L3.41102 17.9159C3.41102 19.6085 4.76786 20.9838 6.43783 20.9838H16.3011C17.971 20.9838 19.3279 19.6085 19.3279 17.9159L19.3276 10.7218ZM20.6326 6.75501H2.36729C2.15854 6.75501 2.00198 6.91369 2.00198 7.12527V9.24107C2.00198 9.45265 2.15854 9.61134 2.36729 9.61134H20.6326C20.8413 9.61134 20.9979 9.45265 20.9979 9.24107V7.12527C20.9979 6.91369 20.8413 6.75501 20.6326 6.75501Z"
        fill="url(#paint0_linear_54_7066)"
      />
      <path
        fill-rule="evenodd"
        clip-rule="evenodd"
        d="M16.7421 1.15681C16.7927 1.15681 17.8057 1.52388 18.1096 2.62509C18.4135 3.62143 18.0083 4.82752 16.9953 6.24336L16.1849 5.6141C16.9953 4.51288 17.3499 3.56899 17.1473 2.93972C16.9953 2.3629 16.4382 2.15314 16.4382 2.15314C15.6785 1.89095 14.9694 1.94339 14.3109 2.25802C12.8559 3.03726 12.1961 5.20601 12.0362 5.60333L12.0356 14.3742L19.3278 14.3752V15.5619L12.0356 15.5616L12.0363 21.0835H10.9681L10.968 15.5616L3.40869 15.5619V14.3752L10.968 14.3742L10.9681 5.66653C10.8668 5.24702 10.1578 3.09704 8.68896 2.31046C8.03053 1.94339 7.3721 1.94339 6.56172 2.20558C6.56172 2.20558 6.00459 2.41534 5.85264 2.99216C5.65005 3.62143 6.00459 4.56532 6.81497 5.66653L6.00459 6.2958C4.99162 4.87995 4.58643 3.67387 4.89032 2.67753C5.19421 1.57632 6.20718 1.20925 6.25783 1.20925C7.32145 0.842178 8.28377 0.894617 9.19545 1.419C10.3122 2.04161 11.0581 3.23415 11.5047 4.17209C11.9326 3.22603 12.667 2.00069 13.8045 1.36656C14.7161 0.894617 15.6785 0.842178 16.7421 1.15681Z"
        fill="url(#paint1_linear_54_7066)"
      />
    </g>
    <defs>
      <linearGradient
        id="paint0_linear_54_7066"
        x1="0.958252"
        y1="20.684"
        x2="24.3411"
        y2="14.6267"
        gradientUnits="userSpaceOnUse"
      >
        <stop stop-color="#1C92ED" />
        <stop offset="0.473958" stop-color="#1CC1EB" />
        <stop offset="1" stop-color="#6DE0C5" />
      </linearGradient>
      <linearGradient
        id="paint1_linear_54_7066"
        x1="3.40869"
        y1="19.4064"
        x2="21.788"
        y2="16.4962"
        gradientUnits="userSpaceOnUse"
      >
        <stop stop-color="#1C92ED" />
        <stop offset="0.473958" stop-color="#1CC1EB" />
        <stop offset="1" stop-color="#6DE0C5" />
      </linearGradient>
      <clipPath id="clip0_54_7066">
        <rect width="23" height="23" fill="white" />
      </clipPath>
    </defs>
  </svg>