<svg width="14" height="14" viewBox="0 0 14 14" fill="none" xmlns="http://www.w3.org/2000/svg">
<path d="M13.1062 0.790243L3.56419 8.74224M5.81219 11.0002L7.99019 13.1682C8.12395 13.3053 8.29118 13.4051 8.47534 13.4577C8.6595 13.5104 8.8542 13.514 9.04019 13.4682C9.2272 13.4247 9.39985 13.3337 9.54153 13.2041C9.68322 13.0745 9.78917 12.9106 9.84919 12.7282L13.4252 2.00824C13.5 1.80746 13.5155 1.58942 13.47 1.38006C13.4244 1.17069 13.3196 0.978841 13.1681 0.827333C13.0166 0.675825 12.8247 0.571045 12.6154 0.525466C12.406 0.479887 12.188 0.49543 11.9872 0.570243L1.26719 4.14724C1.07852 4.21154 0.910445 4.32507 0.780347 4.47608C0.65025 4.6271 0.562853 4.81013 0.527194 5.00624C0.490362 5.18473 0.498497 5.36958 0.550866 5.54414C0.603235 5.7187 0.698194 5.8775 0.827194 6.00624L3.56419 8.74324L3.47419 12.2092L5.81219 11.0012V11.0002Z" stroke="#F8F8F8" stroke-linecap="round" stroke-linejoin="round"/>
</svg>
