<svg width="20" height="20" viewBox="0 0 20 20" fill="none" xmlns="http://www.w3.org/2000/svg">
<g id="simple-line-icons:social-skype" clip-path="url(#clip0_3_5344)">
<path id="Vector" d="M19.097 11.2198C19.1604 10.7751 19.1921 10.3264 19.1921 9.87723C19.1921 4.76434 15.0337 0.601953 9.91686 0.601953C9.48912 0.601953 9.0535 0.633633 8.62973 0.689062C7.7901 0.237617 6.83961 0 5.88119 0C2.6812 0 0.0792236 2.60195 0.0792236 5.79801C0.0792236 6.74059 0.308911 7.67125 0.74852 8.49898C0.681196 8.95445 0.645552 9.41781 0.645552 9.87723C0.645552 14.9901 4.80395 19.1525 9.92082 19.1525C10.2812 19.1525 10.6456 19.1327 11.002 19.0891C11.9327 19.6832 13.01 20 14.1228 20C17.3228 20 19.9208 17.398 19.9208 14.202C19.9208 13.1486 19.6356 12.1188 19.097 11.2198ZM17.2832 17.3624C16.4396 18.2059 15.3149 18.6733 14.1188 18.6733C13.2357 18.6733 12.3842 18.4159 11.6515 17.9288L11.3228 17.7109L10.9307 17.7624C10.598 17.806 10.2575 17.8258 9.92082 17.8258C8.84756 17.8258 7.80598 17.6159 6.82776 17.2C5.88121 16.8 5.02973 16.2257 4.30104 15.497C3.57235 14.7683 2.99807 13.9169 2.59805 12.9703C2.18223 11.9921 1.97231 10.9505 1.97231 9.87725C1.97231 9.45744 2.00399 9.03369 2.07133 8.61783L2.12676 8.26139L1.95252 7.94455C1.59608 7.29109 1.40596 6.55049 1.40596 5.79801C1.40596 4.60197 1.86932 3.48117 2.71684 2.63365C3.56039 1.7901 4.68516 1.32275 5.88121 1.32275C6.64557 1.32275 7.40203 1.52078 8.06344 1.89303L8.38026 2.07125L8.74065 2.01977C9.12877 1.96035 9.52879 1.93266 9.92086 1.93266C10.9941 1.93266 12.0357 2.14256 13.0139 2.5584C13.9605 2.9584 14.812 3.53266 15.5406 4.26137C16.2693 4.99008 16.8436 5.84154 17.2436 6.78809C17.6595 7.76631 17.8694 8.80789 17.8694 9.88115C17.8694 10.293 17.8377 10.7089 17.7743 11.1168L17.7149 11.5049L17.9248 11.8416C18.3644 12.5505 18.598 13.3663 18.598 14.202C18.5941 15.394 18.1268 16.5188 17.2832 17.3624L17.2832 17.3624ZM11.303 9.01387L9.4258 8.59016C8.40401 8.36045 7.88914 8.00797 7.88914 7.5248C7.88914 7.18027 8.03172 6.89906 8.31291 6.68518C8.5941 6.47129 8.99412 6.36439 9.505 6.36439C10.107 6.36439 10.5981 6.49113 10.9704 6.74855C11.0813 6.81984 11.3189 7.0535 11.6832 7.44559C11.9208 7.69904 12.1783 7.82975 12.4515 7.82975C12.7327 7.82975 12.9783 7.75055 13.1763 7.59213C13.3782 7.43371 13.4773 7.21588 13.4773 6.9426C13.4773 6.31289 13.0615 5.76635 12.2298 5.30299C11.4456 4.86338 10.5862 4.64557 9.65153 4.64557C8.5743 4.64557 7.67926 4.87525 6.96637 5.33072C6.13469 5.86934 5.71885 6.64557 5.71885 7.65547C5.71885 9.0416 6.52281 9.94062 8.13072 10.3485L10.6654 10.9901C11.303 11.1525 11.6238 11.497 11.6238 12.0159C11.6238 12.3644 11.4693 12.6574 11.1604 12.903C10.8238 13.1763 10.3762 13.3149 9.8218 13.3149C9.17625 13.3149 8.65744 13.1604 8.26535 12.8515C8.17424 12.7881 7.92473 12.5069 7.51682 12.004C7.26338 11.695 6.97424 11.5406 6.65744 11.5406C6.38416 11.5406 6.15842 11.6277 5.9802 11.802C5.80198 11.9762 5.71487 12.198 5.71487 12.4713C5.71487 13.093 6.04756 13.6396 6.71291 14.1109C7.4852 14.6772 8.52678 14.9584 9.8258 14.9584C11.1367 14.9584 12.1466 14.6614 12.8595 14.0673C13.5327 13.5208 13.8694 12.7802 13.8694 11.8495C13.8812 10.3525 13.0218 9.40594 11.303 9.01383V9.01387Z" fill="#A9A9A9"/>
</g>
<defs>
<clipPath id="clip0_3_5344">
<rect width="20" height="20" fill="white"/>
</clipPath>
</defs>
</svg>
