<svg width="12" height="10" viewBox="0 0 12 10" fill="none" xmlns="http://www.w3.org/2000/svg">
<path d="M11.951 4.76441C11.9331 4.72523 11.5093 3.78425 10.5732 2.84811C9.32063 1.5975 7.74202 0.936157 6.00036 0.936157C4.25871 0.936157 2.68009 1.5975 1.429 2.84811C0.492858 3.78425 0.0690549 4.72523 0.0497032 4.76441C0.0169277 4.83872 0 4.91905 0 5.00026C0 5.08148 0.0169277 5.1618 0.0497032 5.23611C0.0676035 5.27578 0.491406 6.21628 1.42803 7.15242C2.68009 8.40302 4.25871 9.06389 6.00036 9.06389C7.74202 9.06389 9.32063 8.40302 10.5712 7.15242C11.5079 6.21628 11.9317 5.27578 11.9496 5.23611C11.9826 5.1619 11.9997 5.08163 12 5.00042C12.0002 4.9192 11.9836 4.83882 11.951 4.76441ZM9.72267 6.36093C8.68396 7.38367 7.43191 7.90278 6.00036 7.90278C4.56882 7.90278 3.31676 7.38367 2.27951 6.36045C1.87135 5.95659 1.52026 5.49889 1.23596 5.00002C1.52034 4.50136 1.87143 4.04382 2.27951 3.64008C3.31724 2.61637 4.56882 2.09726 6.00036 2.09726C7.43191 2.09726 8.68348 2.61637 9.72122 3.64008C10.1293 4.04379 10.4804 4.50133 10.7648 5.00002C10.4804 5.49886 10.1293 5.95655 9.72122 6.36045L9.72267 6.36093ZM6.00036 2.87133C5.57935 2.87133 5.16779 2.99618 4.81772 3.23008C4.46766 3.46398 4.19482 3.79644 4.03371 4.18541C3.87259 4.57437 3.83044 5.00238 3.91257 5.41531C3.99471 5.82823 4.19745 6.20753 4.49515 6.50523C4.79285 6.80294 5.17215 7.00567 5.58507 7.08781C5.998 7.16995 6.42601 7.12779 6.81498 6.96668C7.20394 6.80556 7.5364 6.53272 7.7703 6.18266C8.00421 5.8326 8.12905 5.42104 8.12905 5.00002C8.12841 4.43565 7.90393 3.89459 7.50487 3.49552C7.1058 3.09645 6.56473 2.87197 6.00036 2.87133ZM6.00036 5.96761C5.80899 5.96761 5.62192 5.91086 5.4628 5.80454C5.30368 5.69822 5.17966 5.5471 5.10643 5.3703C5.03319 5.1935 5.01403 4.99895 5.05137 4.81125C5.0887 4.62356 5.18085 4.45115 5.31617 4.31583C5.45149 4.18051 5.6239 4.08836 5.81159 4.05103C5.99929 4.01369 6.19384 4.03285 6.37064 4.10609C6.54744 4.17932 6.69856 4.30334 6.80488 4.46246C6.9112 4.62158 6.96795 4.80865 6.96795 5.00002C6.96795 5.25664 6.86601 5.50275 6.68455 5.68421C6.50309 5.86567 6.25698 5.96761 6.00036 5.96761Z" fill="#F8F8F8"/>
</svg>
