<svg width="24" height="24" viewBox="0 0 24 24" fill="none" xmlns="http://www.w3.org/2000/svg">
<path d="M20.6904 17.4515C20.8885 17.4515 21.0785 17.5513 21.2186 17.729C21.3587 17.9067 21.4374 18.1477 21.4374 18.399C21.4374 18.6503 21.3587 18.8913 21.2186 19.069C21.0785 19.2467 20.8885 19.3466 20.6904 19.3466H8.18429C7.98619 19.3466 7.79621 19.2467 7.65614 19.069C7.51606 18.8913 7.43737 18.6503 7.43737 18.399C7.43737 18.1477 7.51606 17.9067 7.65614 17.729C7.79621 17.5513 7.98619 17.4515 8.18429 17.4515H20.6904ZM20.4717 11.2356C20.6698 11.2356 20.8598 11.3354 20.9998 11.5131C21.1399 11.6908 21.2186 11.9318 21.2186 12.1831C21.2186 12.4344 21.1399 12.6754 20.9998 12.8531C20.8598 13.0308 20.6698 13.1306 20.4717 13.1306H7.96552C7.76743 13.1306 7.57744 13.0308 7.43737 12.8531C7.2973 12.6754 7.2186 12.4344 7.2186 12.1831C7.2186 11.9318 7.2973 11.6908 7.43737 11.5131C7.57744 11.3354 7.76743 11.2356 7.96552 11.2356H20.4717ZM20.4717 4.97296C20.6698 4.97296 20.8598 5.07279 20.9998 5.25048C21.1399 5.42818 21.2186 5.66918 21.2186 5.92048C21.2186 6.17178 21.1399 6.41279 20.9998 6.59048C20.8598 6.76817 20.6698 6.868 20.4717 6.868H7.96552C7.76743 6.868 7.57744 6.76817 7.43737 6.59048C7.2973 6.41279 7.2186 6.17178 7.2186 5.92048C7.2186 5.66918 7.2973 5.42818 7.43737 5.25048C7.57744 5.07279 7.76743 4.97296 7.96552 4.97296H20.4717Z" fill="#999999"/>
<path d="M4.88343 8.07547H3.90248V4.15506H3.41371V3.1741H4.88343V8.07547Z" fill="#999999"/>
<path d="M5.99427 11.155C5.99427 11.3578 5.95554 11.5492 5.87806 11.7292C5.80059 11.907 5.69463 12.063 5.56019 12.1975C5.42803 12.3296 5.27308 12.4345 5.09535 12.5119C4.91761 12.5894 4.72735 12.6281 4.52455 12.6281H4.03236C3.964 12.6281 3.9002 12.6407 3.84095 12.6657C3.78171 12.6908 3.7293 12.7261 3.68373 12.7717C3.64043 12.815 3.60625 12.8663 3.58119 12.9255C3.55612 12.9848 3.54359 13.0486 3.54359 13.1169V13.6057H5.86097V14.5866H2.56263V13.1169C2.56263 12.9141 2.60137 12.7238 2.67884 12.5461C2.75632 12.3661 2.86114 12.21 2.9933 12.0779C3.12774 11.9434 3.28382 11.8386 3.46156 11.7634C3.63929 11.6859 3.82956 11.6472 4.03236 11.6472H4.52455C4.59291 11.6472 4.65671 11.6347 4.71595 11.6096C4.7752 11.5845 4.82647 11.5503 4.86976 11.507C4.91534 11.4615 4.95065 11.4091 4.97572 11.3498C5.00078 11.2883 5.01332 11.2234 5.01332 11.155C5.01332 11.0866 5.00078 11.0228 4.97572 10.9636C4.95065 10.9043 4.91534 10.8531 4.86976 10.8098C4.82647 10.7642 4.7752 10.7289 4.71595 10.7038C4.65671 10.6788 4.59291 10.6662 4.52455 10.6662H2.77455V9.68527H4.52455C4.72735 9.68527 4.91761 9.72401 5.09535 9.80148C5.27308 9.87896 5.42803 9.98491 5.56019 10.1194C5.69463 10.2515 5.80059 10.4065 5.87806 10.5842C5.95554 10.7619 5.99427 10.9522 5.99427 11.155Z" fill="#999999"/>
<path d="M5.91859 19.927C5.99606 19.7492 6.0348 19.559 6.0348 19.3562C6.0348 19.1762 6.00176 19.0018 5.93568 18.8332C5.8696 18.6623 5.77618 18.5097 5.65541 18.3752C5.77618 18.2408 5.8696 18.0892 5.93568 17.9206C6.00176 17.7497 6.0348 17.5743 6.0348 17.3943C6.0348 17.1915 5.99606 17.0012 5.91859 16.8235C5.84112 16.6457 5.73516 16.4908 5.60072 16.3586C5.46856 16.2242 5.31361 16.1182 5.13588 16.0407C4.95814 15.9633 4.76787 15.9245 4.56507 15.9245H2.60316V16.9055H4.56507C4.63343 16.9055 4.69724 16.918 4.75648 16.9431C4.81573 16.9682 4.867 17.0035 4.91029 17.049C4.95586 17.0923 4.99118 17.1436 5.01625 17.2029C5.04131 17.2621 5.05384 17.3259 5.05384 17.3943C5.05384 17.4626 5.04131 17.5276 5.01625 17.5891C4.99118 17.6483 4.95586 17.7007 4.91029 17.7463C4.867 17.7896 4.81573 17.8238 4.75648 17.8488C4.69724 17.8739 4.63343 17.8864 4.56507 17.8864H3.22865V18.8674H4.56507C4.63343 18.8674 4.69724 18.8799 4.75648 18.905C4.81573 18.9301 4.867 18.9654 4.91029 19.011C4.95586 19.0542 4.99118 19.1055 5.01625 19.1648C5.04131 19.224 5.05384 19.2878 5.05384 19.3562C5.05384 19.4245 5.04131 19.4883 5.01625 19.5476C4.99118 19.6068 4.95586 19.6592 4.91029 19.7048C4.867 19.7481 4.81573 19.7823 4.75648 19.8073C4.69724 19.8324 4.63343 19.8449 4.56507 19.8449H2.60316V20.8259H4.56507C4.76787 20.8259 4.95814 20.7872 5.13588 20.7097C5.31361 20.6322 5.46856 20.5274 5.60072 20.3952C5.73516 20.2608 5.84112 20.1047 5.91859 19.927Z" fill="#999999"/>
</svg>
