<svg width="25" height="25" viewBox="0 0 25 25" fill="none" xmlns="http://www.w3.org/2000/svg">
<path fill-rule="evenodd" clip-rule="evenodd" d="M22.4149 10.7831L22.5579 10.787C23.8464 10.8598 24.8524 11.8858 24.8524 13.1268V14.6893L24.8451 14.7948C24.7882 15.1753 24.434 15.4714 24.0732 15.6612L23.9595 15.7268C23.4824 16.0282 23.2048 16.5481 23.2281 17.0965C23.2514 17.6448 23.5722 18.1412 24.0732 18.4042L24.1715 18.4589C24.5282 18.6682 24.8524 18.9815 24.8524 19.3768V20.9393L24.8483 21.0768C24.7726 22.3158 23.7056 23.2831 22.4149 23.2831H11.0399L10.8969 23.2792C9.60842 23.2064 8.6024 22.1804 8.6024 20.9393V19.3768L8.60971 19.2714C8.66658 18.8909 9.02083 18.5948 9.38159 18.405L9.49533 18.3393C9.97235 18.038 10.25 17.5181 10.2267 16.9697C10.2034 16.4213 9.88258 15.9249 9.38159 15.662L9.28327 15.6073C8.92658 15.3979 8.6024 15.0846 8.6024 14.6893V13.1268L8.60646 12.9893C8.68218 11.7504 9.74919 10.7831 11.0399 10.7831H22.4149ZM22.4149 11.955H11.0399C10.3668 11.955 9.82115 12.4796 9.82115 13.1268V14.5425L9.89427 14.5925L10.1104 14.7151C10.9665 15.2299 11.4745 16.1426 11.4451 17.1131C11.4157 18.0836 10.8532 18.9663 9.9674 19.4323L9.89427 19.4737L9.82115 19.5237V20.9393C9.82115 21.5865 10.3668 22.1112 11.0399 22.1112H22.4149C23.088 22.1112 23.6336 21.5865 23.6336 20.9393V19.5237L23.6215 19.5151C23.5857 19.4885 23.5402 19.4596 23.4882 19.4323L23.3444 19.351C22.4883 18.8362 21.9803 17.9235 22.0097 16.953C22.0391 15.9826 22.6016 15.0998 23.4874 14.6339L23.5605 14.5925L23.6215 14.5511L23.6336 14.5425V13.1268C23.6336 12.4796 23.088 11.955 22.4149 11.955ZM8.125 0.783081C12.6124 0.783081 16.25 4.42064 16.25 8.90808C16.25 9.11832 16.242 9.32669 16.2263 9.53291L15.0034 9.53259C15.0218 9.32689 15.0313 9.11858 15.0313 8.90808C15.0313 5.09386 11.9392 2.00183 8.125 2.00183C4.31078 2.00183 1.21875 5.09386 1.21875 8.90808C1.21875 12.638 4.17559 15.6773 7.87314 15.8098L7.82396 15.807L7.84903 15.835L7.87364 15.8639L7.87238 15.8826C7.84394 16.3136 7.63068 16.7147 7.28331 16.99C3.19139 16.5689 0 13.1113 0 8.90808C0 4.42064 3.63756 0.783081 8.125 0.783081Z" fill="white"/>
<path fill-rule="evenodd" clip-rule="evenodd" d="M17.5726 14.7591L17.6074 14.8437L17.7758 15.3423C17.8629 15.5991 18.082 15.7849 18.3443 15.8242L18.4324 15.8315L18.9468 15.8424C19.592 15.8563 19.8748 16.6633 19.4243 17.0978L19.3618 17.1524L18.9518 17.471C18.7403 17.6353 18.6356 17.9069 18.6804 18.1752L18.701 18.2627L18.8502 18.7679C19.0371 19.4036 18.3741 19.9292 17.8312 19.6209L17.7637 19.5771L17.3417 19.2761C17.1268 19.1229 16.8472 19.1033 16.614 19.225L16.5302 19.2761L16.1081 19.5779C15.5773 19.957 14.8845 19.4714 15.0025 18.8474L15.0217 18.7679L15.1709 18.2635C15.2478 18.0029 15.1768 17.7201 14.9868 17.5301L14.9201 17.4717L14.5101 17.1524C13.9956 16.7522 14.2294 15.9292 14.8426 15.849L14.925 15.8424L15.4395 15.8322C15.7046 15.8266 15.9445 15.67 16.0619 15.4261L16.096 15.3423L16.2644 14.8437C16.4762 14.2211 17.3054 14.1926 17.5726 14.7591ZM16.9359 16.0611C16.6908 16.4679 16.2986 16.761 15.8459 16.874C16.1472 17.2385 16.2971 17.7116 16.2623 18.1884C16.694 18.007 17.1779 18.007 17.6095 18.1884C17.5749 17.7112 17.7245 17.2391 18.0259 16.874C17.5727 16.7602 17.1812 16.4683 16.9359 16.0611ZM8.2493 5.20837H8.41753L12.5001 9.04876V9.20708L11.929 9.7433L10.2377 9.77601H9.95047L10.6392 9.12816L8.33341 6.9591L6.02853 9.12727L7.25106 10.2781L7.25515 10.4324C6.99372 10.704 6.82208 11.0367 6.76258 11.3964L6.56094 11.4584L4.16675 9.20703V9.04876L8.2493 5.20837Z" fill="#EDC90A"/>
</svg>
