<svg width="15" height="9" viewBox="0 0 15 9" fill="none" xmlns="http://www.w3.org/2000/svg">
<path fill-rule="evenodd" clip-rule="evenodd" d="M8.92123 8.38899C8.63998 8.66989 8.25873 8.82767 7.86123 8.82767C7.46373 8.82767 7.08248 8.66989 6.80123 8.38899L1.14323 2.73299C0.861966 2.4516 0.704008 2.07 0.704102 1.67214C0.704195 1.27428 0.862334 0.892753 1.14373 0.611491C1.42512 0.330229 1.80672 0.17227 2.20458 0.172363C2.60244 0.172457 2.98397 0.330596 3.26523 0.61199L7.86123 5.20799L12.4572 0.61199C12.74 0.338617 13.1188 0.187245 13.5121 0.190476C13.9054 0.193706 14.2817 0.351282 14.56 0.629264C14.8382 0.907247 14.9961 1.28339 14.9998 1.67669C15.0034 2.06998 14.8523 2.44896 14.5792 2.73199L8.92223 8.38999L8.92123 8.38899Z" fill="#F8F8F8"/>
</svg>
