<svg width="200" height="200" viewBox="0 0 200 200" fill="none" xmlns="http://www.w3.org/2000/svg">
<path d="M153.751 166.45H157.379V168.695H153.751V166.45Z" fill="#E9E8E8"/>
<path d="M154.798 167.573C154.798 168.208 154.313 168.695 153.676 168.695C153.04 168.695 152.553 168.209 152.553 167.573C152.553 166.936 153.039 166.45 153.676 166.45C154.312 166.45 154.798 166.974 154.798 167.573ZM158.465 167.573C158.465 168.208 157.978 168.695 157.342 168.695C156.706 168.695 156.22 168.209 156.22 167.573C156.22 166.936 156.705 166.45 157.342 166.45C157.978 166.45 158.465 166.974 158.465 167.573ZM49.7452 166.45H148.027V168.695H49.7452V166.45Z" fill="#E9E8E8"/>
<path d="M149.112 167.573C149.112 168.208 148.626 168.695 147.989 168.695C147.353 168.695 146.867 168.209 146.867 167.573C146.867 166.936 147.353 166.45 147.989 166.45C148.625 166.45 149.112 166.974 149.112 167.573ZM50.8672 167.573C50.8672 168.208 50.3811 168.695 49.7448 168.695C49.1089 168.695 48.622 168.209 48.622 167.573C48.622 166.936 49.1085 166.45 49.7448 166.45C50.3433 166.45 50.8672 166.974 50.8672 167.573Z" fill="#E9E8E8"/>
<path d="M90.8608 172.212C90.8607 172.443 90.9062 172.671 90.9945 172.885C91.0828 173.098 91.2123 173.292 91.3756 173.455C91.5389 173.619 91.7327 173.748 91.9461 173.837C92.1595 173.925 92.3882 173.97 92.6191 173.97C92.8501 173.97 93.0788 173.925 93.2921 173.837C93.5055 173.748 93.6994 173.619 93.8627 173.455C94.0259 173.292 94.1554 173.098 94.2438 172.885C94.3321 172.671 94.3775 172.443 94.3775 172.212C94.3775 171.981 94.3321 171.752 94.2438 171.538C94.1554 171.325 94.0259 171.131 93.8627 170.968C93.6994 170.805 93.5055 170.675 93.2921 170.587C93.0788 170.498 92.8501 170.453 92.6191 170.453C92.3882 170.453 92.1595 170.498 91.9461 170.587C91.7327 170.675 91.5389 170.805 91.3756 170.968C91.2123 171.131 91.0828 171.325 90.9945 171.538C90.9062 171.752 90.8607 171.981 90.8608 172.212V172.212Z" fill="#E9E8E8"/>
<path d="M68.6006 170.865H87.4939V173.109H68.6006V170.865ZM98.5678 170.865H118.658V173.109H98.5678V170.865Z" fill="#E9E8E8"/>
<path d="M69.6486 171.987C69.6486 172.623 69.1621 173.109 68.5261 173.109C67.8902 173.109 67.4034 172.623 67.4034 171.987C67.4034 171.351 67.8898 170.864 68.5261 170.864C69.1621 170.865 69.6486 171.388 69.6486 171.987ZM88.6538 171.987C88.6538 172.623 88.1673 173.109 87.531 173.109C86.8951 173.109 86.4082 172.623 86.4082 171.987C86.4082 171.351 86.8947 170.864 87.531 170.864C88.1299 170.865 88.6538 171.388 88.6538 171.987ZM99.6154 171.987C99.6154 172.623 99.1292 173.109 98.4929 173.109C97.857 173.109 97.3702 172.623 97.3702 171.987C97.3702 171.351 97.8566 170.864 98.4929 170.864C99.0918 170.865 99.6154 171.388 99.6154 171.987ZM119.743 171.987C119.743 172.623 119.257 173.109 118.621 173.109C117.985 173.109 117.498 172.623 117.498 171.987C117.498 171.351 117.984 170.864 118.621 170.864C119.257 170.865 119.743 171.388 119.743 171.987Z" fill="#E9E8E8"/>
<path d="M118.397 175.541H136.691V177.786H118.397V175.541ZM143.874 175.541H152.255V177.786H143.874V175.541Z" fill="#E9E8E8"/>
<path d="M119.519 176.663C119.519 177.3 119.033 177.786 118.396 177.786C117.76 177.786 117.274 177.3 117.274 176.663C117.274 176.028 117.76 175.541 118.396 175.541C118.995 175.541 119.519 176.065 119.519 176.663ZM153.489 176.663C153.489 177.3 153.003 177.786 152.366 177.786C151.73 177.786 151.244 177.3 151.244 176.663C151.244 176.028 151.73 175.541 152.366 175.541C153.003 175.541 153.489 176.065 153.489 176.663ZM138.711 177.786C138.488 177.454 138.371 177.063 138.374 176.663C138.374 175.579 139.273 174.681 140.357 174.681C141.442 174.681 142.34 175.579 142.34 176.663C142.344 177.063 142.226 177.454 142.003 177.786H144.472C144.548 177.48 144.586 177.166 144.584 176.851C144.584 174.569 142.714 172.698 140.431 172.698C138.149 172.698 136.279 174.569 136.279 176.851C136.279 177.15 136.316 177.487 136.392 177.786H138.711V177.786ZM115.59 176.663C115.59 177.3 115.105 177.786 114.468 177.786H112.597C111.961 177.786 111.475 177.3 111.475 176.663C111.475 176.028 111.961 175.541 112.597 175.541H114.468C115.067 175.541 115.59 176.065 115.59 176.663Z" fill="#E9E8E8"/>
<path d="M44.6571 44.1504C42.6374 46.2454 39.3068 46.2832 37.2126 44.2624L33.7705 40.9326C31.6755 38.9125 31.6376 35.5827 33.6581 33.4877C35.6782 31.3923 39.0084 31.3552 41.1026 33.3753L44.5448 36.7051C46.6401 38.763 46.6776 42.0928 44.6571 44.1504V44.1504Z" fill="#E9E8E8"/>
<path d="M91.3847 29.0734C91.3847 29.2228 91.1604 29.3726 90.8986 29.3726H85.848C85.5858 29.3726 85.3619 29.2228 85.3619 29.0734V28.2876C85.3619 28.1382 85.5862 27.9884 85.848 27.9884H90.8986C91.1608 27.9884 91.3847 28.1382 91.3847 28.2876V29.0734Z" fill="#E9E8E8"/>
<path d="M88.0175 31.6922C87.8677 31.6922 87.7187 31.4675 87.7187 31.2053V26.1547C87.7187 25.8933 87.8681 25.6686 88.0175 25.6686H88.8032C88.9534 25.6686 89.1025 25.8933 89.1025 26.1547V31.2053C89.1025 31.4675 88.953 31.6922 88.8032 31.6922H88.0175V31.6922Z" fill="#E9E8E8"/>
<path d="M118.77 23.0122C116.189 23.0122 114.131 25.1072 114.131 27.6513C114.131 30.1957 116.226 32.2907 118.77 32.2907C121.352 32.2907 123.409 30.1957 123.409 27.6513C123.409 25.1072 121.314 23.0122 118.77 23.0122V23.0122ZM118.696 29.8586C117.498 29.8586 116.563 28.886 116.563 27.7262C116.563 26.5663 117.536 25.5933 118.696 25.5933C119.855 25.5933 120.828 26.5663 120.828 27.7262C120.828 28.886 119.855 29.8586 118.696 29.8586Z" fill="#E9E8E8"/>
<path d="M95.425 64.9513C95.425 65.7452 95.7403 66.5065 96.3016 67.0678C96.8629 67.6291 97.6242 67.9444 98.418 67.9444C99.2119 67.9444 99.9732 67.6291 100.534 67.0678C101.096 66.5065 101.411 65.7452 101.411 64.9513C101.411 64.1575 101.096 63.3962 100.534 62.8349C99.9732 62.2736 99.2119 61.9583 98.418 61.9583C97.6242 61.9583 96.8629 62.2736 96.3016 62.8349C95.7403 63.3962 95.425 64.1575 95.425 64.9513V64.9513Z" fill="#E9E8E8"/>
<path d="M53.6734 85.3035C53.6734 85.5393 53.7197 85.7729 53.81 85.9908C53.9002 86.2088 54.0324 86.4068 54.1992 86.5736C54.366 86.7405 54.5639 86.8728 54.7819 86.9631C54.9998 87.0533 55.2333 87.0998 55.4692 87.0998C55.7051 87.0998 55.9386 87.0533 56.1566 86.9631C56.3745 86.8728 56.5725 86.7405 56.7392 86.5736C56.906 86.4068 57.0382 86.2088 57.1285 85.9908C57.2187 85.7729 57.2651 85.5393 57.265 85.3035C57.2651 85.0676 57.2187 84.834 57.1285 84.6161C57.0382 84.3981 56.906 84.2001 56.7392 84.0333C56.5725 83.8664 56.3745 83.7341 56.1566 83.6438C55.9386 83.5535 55.7051 83.5071 55.4692 83.5071C55.2333 83.5071 54.9998 83.5535 54.7819 83.6438C54.5639 83.7341 54.366 83.8664 54.1992 84.0333C54.0324 84.2001 53.9002 84.3981 53.81 84.6161C53.7197 84.834 53.6734 85.0676 53.6734 85.3035Z" fill="#E9E8E8"/>
<path d="M172.494 133.715L163.889 125.821C164.825 121.444 165.311 116.879 165.311 112.24C165.311 76.1006 136.017 46.7693 99.8397 46.7693C90.7485 46.7693 82.1066 48.64 74.2123 51.9694L66.6176 44.0754C65.8323 43.2523 64.4852 43.2152 63.662 44.0384C62.8396 44.8237 62.8017 46.1704 63.6245 46.9936L70.2466 53.84C71.7432 55.8976 71.593 58.7413 69.7976 60.649C67.7775 62.7819 64.4103 62.8564 62.2778 60.7988L60.9685 59.5266L53.336 52.1192C51.2784 50.1365 48.0606 50.2114 46.078 52.2311C44.0953 54.2887 44.1702 57.5065 46.1903 59.4895L54.8325 67.8696C55.6349 68.8309 56.0618 70.0503 56.0343 71.3021C56.0067 72.554 55.5266 73.7535 54.6827 74.6785C52.7375 76.8114 49.4452 76.9608 47.3498 75.0152L46.5266 74.267L46.4892 74.304L39.0443 67.4951C35.8269 64.5769 30.8886 64.8016 27.933 67.9816C25.0148 71.199 25.2395 76.1373 28.4194 79.0929L38.82 88.5957C35.9763 95.9286 34.4427 103.859 34.4427 112.166C34.4427 133.789 44.9181 152.945 61.0427 164.879H138.748C142.309 162.252 145.593 159.268 148.55 155.975L151.991 159.118C155.209 162.036 160.147 161.811 163.103 158.631C166.058 155.451 165.797 150.475 162.617 147.52L157.678 142.993V142.956L150.645 136.521C149.148 135.174 149.036 132.854 150.42 131.358C151.804 129.861 154.087 129.749 155.583 131.133L160.896 135.997V135.959L166.096 140.711C168.041 142.507 171.109 142.357 172.905 140.412C174.59 138.541 174.477 135.51 172.494 133.715V133.715ZM50.8672 110.632C50.8672 110.781 50.6425 110.93 50.3811 110.93H48.5479V112.764C48.5479 113.025 48.3977 113.25 48.2487 113.25H47.4626C47.3131 113.25 47.1633 113.025 47.1633 112.764V110.93H45.3301C45.0683 110.93 44.844 110.78 44.844 110.632V109.845C44.844 109.696 45.0687 109.546 45.3301 109.546H47.1633V107.713C47.1633 107.451 47.3135 107.226 47.4626 107.226H48.2487C48.3981 107.226 48.5479 107.452 48.5479 107.713V109.546H50.3811C50.6429 109.546 50.8672 109.696 50.8672 109.845V110.632ZM55.4322 89.5683C53.1124 89.5683 51.2043 87.6976 51.2043 85.3408C51.2043 82.9841 53.075 81.1134 55.4322 81.1134C57.7511 81.1134 59.6596 82.9841 59.6596 85.3408C59.6596 87.6976 57.7511 89.5683 55.4322 89.5683ZM98.4181 70.3013C95.3879 70.3013 92.9562 67.8696 92.9562 64.8394C92.9562 61.8093 95.3879 59.3776 98.4181 59.3776C101.449 59.3776 103.88 61.8093 103.88 64.8394C103.88 67.8696 101.449 70.3013 98.4181 70.3013V70.3013ZM139.235 74.3419C139.235 74.4913 139.01 74.6411 138.749 74.6411H136.915V76.4739C136.915 76.7361 136.766 76.9604 136.617 76.9604H135.831C135.681 76.9604 135.531 76.7357 135.531 76.4739V74.6411H133.698C133.436 74.6411 133.212 74.4913 133.212 74.3419V73.5936C133.212 73.4438 133.436 73.294 133.698 73.294H135.531V71.4611C135.531 71.199 135.681 70.975 135.831 70.975H136.617C136.766 70.975 136.915 71.1993 136.915 71.4611V73.294H138.749C139.01 73.294 139.235 73.4438 139.235 73.5936V74.3419Z" fill="#E4E4E4"/>
<path d="M117.559 116.064L117.253 96.2961L100.417 79.4603H72.8819C70.0012 79.4603 67.6444 81.8175 67.6444 84.6978V136.139C67.6444 139.02 70.0012 141.377 72.8819 141.377H103.058C98.1544 129.745 103.31 116.064 117.559 116.064Z" fill="white"/>
<path d="M108.816 108.735H77.3525C77.0454 108.736 76.7512 108.859 76.534 109.076C76.3168 109.293 76.1941 109.587 76.1927 109.894C76.1943 110.201 76.317 110.495 76.5342 110.712C76.7514 110.93 77.0455 111.052 77.3525 111.054H108.816C109.123 111.052 109.417 110.929 109.634 110.712C109.851 110.495 109.974 110.201 109.976 109.894C109.974 109.587 109.851 109.293 109.634 109.076C109.417 108.859 109.123 108.736 108.816 108.735ZM77.3525 100.878H98.9764C99.2836 100.877 99.5778 100.754 99.795 100.537C100.012 100.319 100.135 100.025 100.136 99.7177C100.135 99.4106 100.012 99.1166 99.7947 98.8996C99.5775 98.6825 99.2834 98.56 98.9764 98.5586H77.3525C77.0455 98.5599 76.7513 98.6824 76.5341 98.8995C76.3169 99.1165 76.1942 99.4106 76.1927 99.7177C76.1927 100.391 76.7159 100.878 77.3525 100.878ZM97.1107 118.911H77.3525C77.0455 118.912 76.7514 119.035 76.5342 119.252C76.317 119.469 76.1943 119.763 76.1927 120.07C76.1942 120.377 76.3169 120.671 76.5341 120.888C76.7513 121.106 77.0454 121.228 77.3525 121.23H97.1107C97.4178 121.228 97.7118 121.105 97.929 120.888C98.1462 120.671 98.2689 120.377 98.2705 120.07C98.2688 119.763 98.1461 119.469 97.9289 119.252C97.7118 119.035 97.4177 118.912 97.1107 118.911ZM105.748 96.2763H117.347L100.511 79.4406V91.0384C100.511 93.9191 102.867 96.2763 105.748 96.2763Z" fill="#C9C9C9"/>
<path d="M77.3526 128.917L91.8813 128.917C92.1883 128.919 92.4824 129.042 92.6995 129.259C92.9167 129.476 93.0394 129.77 93.0411 130.077C93.0395 130.384 92.9168 130.678 92.6996 130.895C92.4824 131.112 92.1884 131.235 91.8813 131.236L77.3526 131.236C77.0454 131.235 76.7513 131.112 76.5341 130.895C76.3169 130.678 76.1942 130.384 76.1927 130.077C76.1943 129.77 76.317 129.476 76.5342 129.259C76.7514 129.042 77.0455 128.919 77.3526 128.917Z" fill="#C9C9C9"/>
<path d="M136.973 146.854L129.671 139.425C133.538 132.99 132.636 124.543 127.046 119.058C120.513 112.648 109.963 112.747 103.553 119.28C97.142 125.814 97.2414 136.363 103.775 142.775C109.364 148.259 117.827 149.002 124.186 145.012L131.379 152.33C131.379 152.33 134.276 155.078 136.973 152.33C139.669 149.581 136.973 146.854 136.973 146.854ZM124.473 139.809C119.545 144.832 111.502 144.909 106.516 139.979C101.494 135.051 101.417 127.007 106.346 122.022C111.276 117.037 119.318 116.923 124.303 121.852C129.326 126.744 129.402 134.787 124.473 139.809Z" fill="#C9C9C9"/>
<path d="M115.803 141.485C115.206 141.582 114.476 141.217 114.346 140.653C114.217 140.089 114.569 139.527 115.133 139.398C117.666 139.367 119.776 138.276 120.88 136.785C121.321 136.466 121.927 136.54 122.28 136.941C122.302 136.966 122.323 136.992 122.343 137.02C122.681 137.489 122.492 138.192 122.103 138.638C120.702 140.248 118.663 141.268 115.803 141.485Z" fill="#C9C9C9"/>
</svg>
